<svg width="42" height="42" viewBox="0 0 42 42" fill="none" xmlns="http://www.w3.org/2000/svg">
<path d="M39.0964 20.9689C39.0964 30.9808 30.9799 39.1064 20.9589 39.1064C10.9378 39.1064 2.82129 30.9808 2.82129 20.9689C2.82129 10.9479 10.9378 2.83131 20.9589 2.83131C30.9799 2.83131 39.0964 10.9479 39.0964 20.9689Z" fill="#283544"/>
<path d="M29.4609 16.3793C29.3619 16.437 27.0058 17.6555 27.0058 20.3572C27.1168 23.4383 29.9791 24.5188 30.0282 24.5188C29.9791 24.5766 29.5961 25.9908 28.4615 27.4732C27.561 28.7502 26.5616 30.0377 25.044 30.0377C23.6004 30.0377 23.0821 29.1866 21.4164 29.1866C19.6276 29.1866 19.1215 30.0377 17.7519 30.0377C16.2343 30.0377 15.1608 28.6812 14.2113 27.4162C12.9777 25.7606 11.9292 23.1624 11.8922 20.6676C11.8672 19.3457 12.1392 18.0462 12.8296 16.9424C13.8041 15.4015 15.5438 14.3555 17.4437 14.321C18.8994 14.2752 20.1949 15.2523 21.0833 15.2523C21.9347 15.2523 23.5263 14.321 25.3272 14.321C26.1045 14.3217 28.1774 14.5399 29.4609 16.3793ZM20.9602 14.057C20.7011 12.8498 21.4164 11.6425 22.0827 10.8724C22.9341 9.94113 24.2787 9.30902 25.4383 9.30902C25.5123 10.5163 25.0432 11.7003 24.2047 12.5626C23.4523 13.4939 22.1568 14.195 20.9602 14.057Z" fill="white"/>
</svg>
