<svg xmlns="http://www.w3.org/2000/svg" width="148" height="138" viewBox="0 0 148 138" fill="none">
  <path d="M74.9925 82.8047L74.7925 96.5861L74.4992 116.782L73.8406 117.191L73.1846 116.782L73.0085 104.498L72.9019 97.4194L72.6846 82.8047L73.8232 82.4474L74.9925 82.8047Z" fill="#34528A"/>
  <path d="M73.2876 123.868L73.5156 137.622C73.5156 137.622 73.5662 137.932 73.8449 137.932C74.1236 137.932 74.1609 137.604 74.1609 137.604L74.3942 123.868L73.8382 123.55L73.2876 123.868Z" fill="#34528A"/>
  <path d="M78.7781 8.55853C78.7781 10.6599 77.4634 12.4505 75.6141 13.1665L75.4088 52.3238L75.1034 74.0411L73.8421 74.5771L72.5674 74.0411L72.2274 52.3238L72.0688 13.1665C70.2208 12.4505 68.9048 10.6599 68.9048 8.55853C68.9048 5.83587 71.1181 3.62923 73.8421 3.62923C76.5714 3.62923 78.7781 5.83587 78.7781 8.55853Z" fill="#34528A"/>
  <path d="M75.6314 119.63C75.2447 119.401 74.8567 119.166 74.4701 118.937C74.0474 118.685 73.6248 118.438 73.2074 118.179C72.8088 117.939 72.4088 117.699 72.0221 117.453C68.6888 115.333 65.9235 113.05 65.9235 110.015C65.9235 107.421 68.4181 105.542 71.8221 103.787L71.7581 99.2687C66.6168 101.727 62.0674 104.633 62.0674 109.441C62.0674 115.31 67.2328 118.526 72.0754 121.221C72.4741 121.443 72.8674 121.661 73.2608 121.878C73.6541 122.095 74.0408 122.311 74.4168 122.523C74.8154 122.746 75.2035 122.97 75.5795 123.193C78.3088 124.813 80.3621 126.794 80.3621 129.486C80.3621 133.69 78.2061 135.299 75.3968 135.779C78.3634 136.142 83.4394 133.926 83.0354 128.27C82.7394 124.125 79.6941 122.054 75.6314 119.63ZM76.2541 76.7768C74.4061 76.0941 72.5488 75.2794 70.7048 74.6461C67.1568 73.2274 64.1088 72.1581 61.7781 71.0941C55.5968 68.2728 53.0421 65.7554 52.1235 61.5074C51.1181 56.8594 54.2901 52.6021 56.6875 51.1994C56.6875 51.1994 57.4434 52.8461 60.7341 52.6288C62.3847 52.5194 67.5381 50.3234 69.2061 48.1741C70.8647 46.0247 66.2421 40.8074 56.4448 44.1128C52.5968 45.4114 47.6781 48.0368 45.7274 53.7488C44.1381 58.4074 43.1781 67.9061 54.0328 74.0088C58.8541 76.7195 64.3155 78.1968 71.4875 80.4981C73.0475 81.0074 74.6261 81.4594 76.1781 81.9354C81.6128 83.5967 86.0968 85.2221 86.0968 88.6621C86.0968 92.5768 81.2781 94.9421 75.9541 97.3488L75.8901 101.869C82.6995 98.8047 90.4941 95.4768 90.4941 88.6621C90.4941 82.0701 83.0395 79.3474 76.2541 76.7768Z" fill="#34528A"/>
  <path d="M64.6477 128.27C64.2437 133.926 69.3197 136.142 72.2864 135.779C69.4784 135.299 67.3211 133.69 67.3211 129.486C67.3211 126.794 69.3757 124.813 72.1051 123.193C72.4797 122.97 72.8677 122.746 73.2664 122.523C73.6424 122.311 74.0304 122.095 74.4224 121.878C74.8157 121.661 75.209 121.443 75.609 121.221C80.4517 118.526 85.6158 115.31 85.6158 109.441C85.6158 104.633 81.0677 101.727 75.9251 99.2687L75.8611 103.787C79.2651 105.542 81.7597 107.421 81.7597 110.015C81.7597 113.05 78.9957 115.333 75.6611 117.453C75.2744 117.699 74.8744 117.939 74.4757 118.179C74.0597 118.438 73.6371 118.685 73.2144 118.937C72.8264 119.166 72.4398 119.401 72.0518 119.63C67.9904 122.054 64.9437 124.125 64.6477 128.27ZM57.1904 88.6621C57.1904 95.4768 64.985 98.8047 71.793 101.869L71.729 97.3488C66.405 94.9421 61.5864 92.5768 61.5864 88.6621C61.5864 85.2221 66.0704 83.5967 71.5064 81.9354C73.0584 81.4594 74.6357 81.0074 76.1957 80.4981C83.3677 78.1968 88.8291 76.7195 93.6518 74.0088C104.505 67.9061 103.545 58.4074 101.956 53.7488C100.005 48.0368 95.0864 45.4114 91.2397 44.1128C81.4424 40.8074 76.8197 46.0247 78.4784 48.1741C80.1451 50.3234 85.2997 52.5194 86.9504 52.6288C90.2397 52.8461 90.9971 51.1994 90.9971 51.1994C93.3931 52.6021 96.5664 56.8594 95.5611 61.5074C94.6424 65.7554 92.0877 68.2728 85.9051 71.0941C83.5757 72.1581 80.5264 73.2274 76.9784 74.6461C75.1357 75.2794 73.2784 76.0941 71.429 76.7768C64.6437 79.3474 57.1904 82.0701 57.1904 88.6621Z" fill="#34528A"/>
  <path d="M98.3926 1.52877C90.9006 -0.743229 86.1033 2.03408 85.0086 7.00208C83.5606 13.5781 81.4246 15.7034 77.9526 16.446V23.502C89.1713 23.502 92.922 15.9994 98.7606 14.4554C104.671 12.8914 108.677 11.422 110.293 5.87799C110.293 5.87799 104.026 3.2381 98.3926 1.52877ZM136.029 20.0367C140.946 19.5274 146.081 16.2461 147.234 12.2914C129.685 12.7861 121.455 10.1781 111.814 6.52343C110.018 12.9901 105.227 14.7327 99.15 16.3394C97.2966 16.83 95.5979 18.0767 93.6286 19.5221C90.0379 22.1567 85.5713 25.438 77.954 25.438V30.334C77.954 35.8554 83.6286 35.69 83.6286 35.69C83.6286 35.69 83.0526 32.394 83.2993 29.9234C84.318 36.3487 87.4193 37.8327 91.7033 37.8327C88.7366 33.7953 89.7259 27.2861 89.7259 27.2861C93.1033 39.8914 98.7753 40.1154 102.002 38.2527C99.53 35.7887 96.3993 29.5927 96.07 23.906C98.3766 29.3434 101.59 35.1954 105.133 37.0914C108.675 38.9861 113.783 38.4287 114.965 36.3834C107.399 32.0141 102.826 22.0167 102.826 22.0167C113.207 35.3674 121.451 37.3194 124.906 37.51C128.959 37.7354 131.434 36.7461 134.335 34.2861C126.426 32.0621 114.278 25.638 107.851 17.2353C117.75 27.2287 127.461 29.5274 132.651 29.5274C137.842 29.5274 141.771 26.7914 142.842 23.4967C130.978 22.4261 123.67 20.4474 115.102 14.7634C120.986 18.0901 129.327 20.7287 136.029 20.0367Z" fill="#34528A"/>
  <path d="M37.3902 5.87799C39.0076 11.422 43.0115 12.8914 48.9222 14.4554C54.7609 15.9994 58.5129 23.502 69.7302 23.502V16.446C66.2595 15.7034 64.1222 13.5781 62.6742 7.00208C61.5796 2.03408 56.7822 -0.743229 49.2902 1.52877C43.6582 3.2381 37.3902 5.87799 37.3902 5.87799ZM32.5809 14.7634C24.0129 20.4474 16.7049 22.4261 4.84089 23.4967C5.91289 26.7914 9.84221 29.5274 15.0329 29.5274C20.2235 29.5274 29.9342 27.2287 39.8315 17.2353C33.4048 25.638 21.2569 32.0621 13.3475 34.2861C16.2489 36.7461 18.7249 37.7354 22.7769 37.51C26.2329 37.3194 34.4769 35.3674 44.8569 22.0167C44.8569 22.0167 40.2849 32.0141 32.7182 36.3834C33.8996 38.4287 39.0075 38.9861 42.5502 37.0914C46.0929 35.1954 49.3062 29.3434 51.6129 23.906C51.2836 29.5927 48.1529 35.7887 45.6809 38.2527C48.9089 40.1154 54.5796 39.8914 57.9569 27.2861C57.9569 27.2861 58.9462 33.7953 55.9796 37.8327C60.2649 37.8327 63.3662 36.3487 64.3835 29.9234C64.6315 32.394 64.0542 35.69 64.0542 35.69C64.0542 35.69 69.7302 35.8554 69.7302 30.334V25.438C62.1115 25.438 57.6449 22.1567 54.0542 19.5221C52.0849 18.0767 50.3862 16.83 48.5329 16.3394C42.4555 14.7327 37.6662 12.9901 35.8689 6.52343C26.2289 10.1781 17.9982 12.7861 0.450195 12.2914C1.60353 16.2461 6.7369 19.5274 11.6542 20.0367C18.3569 20.7287 26.6982 18.0901 32.5809 14.7634Z" fill="#34528A"/>
</svg>