<svg width="43" height="42" viewBox="0 0 43 42" fill="none" xmlns="http://www.w3.org/2000/svg">
<path d="M39.4559 21.3717C39.4559 19.8804 39.3324 18.7921 39.0652 17.6636H21.6885V24.3946H31.8882C31.6826 26.0673 30.5722 28.5864 28.1044 30.2792L28.0698 30.5045L33.564 34.6757L33.9447 34.7129C37.4405 31.5489 39.4559 26.8935 39.4559 21.3717Z" fill="#4285F4"/>
<path d="M21.6878 39.1064C26.6848 39.1064 30.8798 37.4941 33.944 34.7131L28.1038 30.2793C26.5409 31.3474 24.4434 32.0931 21.6878 32.0931C16.7936 32.0931 12.6397 28.9292 11.159 24.5559L10.9419 24.574L5.22901 28.9069L5.1543 29.1105C8.19774 35.0354 14.4492 39.1064 21.6878 39.1064Z" fill="#34A853"/>
<path d="M11.1595 24.5561C10.7687 23.4275 10.5426 22.2182 10.5426 20.9688C10.5426 19.7193 10.7687 18.5102 11.1389 17.3816L11.1286 17.1413L5.34403 12.7388L5.15477 12.827C3.90042 15.2857 3.18066 18.0467 3.18066 20.9688C3.18066 23.891 3.90042 26.6518 5.15477 29.1105L11.1595 24.5561Z" fill="#FBBC05"/>
<path d="M21.6879 9.84446C25.1632 9.84446 27.5075 11.3156 28.8442 12.545L34.0675 7.54708C30.8596 4.62492 26.685 2.83131 21.6879 2.83131C14.4493 2.83131 8.19776 6.90216 5.1543 12.827L11.1384 17.3817C12.6398 13.0085 16.7937 9.84446 21.6879 9.84446Z" fill="#EB4335"/>
</svg>
