<svg width="25" height="25" viewBox="0 0 25 25" fill="none" xmlns="http://www.w3.org/2000/svg">
<path d="M11.8522 15.5486L10.0022 17.3986C9.61225 17.7886 8.99225 17.7886 8.59225 17.4086C8.48225 17.2986 8.37225 17.1986 8.26225 17.0886C7.25101 16.0706 6.31835 14.9775 5.47225 13.8186C4.65225 12.6786 3.99225 11.5386 3.51225 10.4086C3.04225 9.26863 2.80225 8.17863 2.80225 7.13863C2.80225 6.45863 2.92225 5.80863 3.16225 5.20863C3.40225 4.59863 3.78225 4.03863 4.31225 3.53863C4.95225 2.90863 5.65225 2.59863 6.39225 2.59863C6.67225 2.59863 6.95225 2.65863 7.20225 2.77863C7.46225 2.89863 7.69225 3.07863 7.87225 3.33863L10.1922 6.60863C10.3722 6.85863 10.5022 7.08863 10.5922 7.30863C10.6822 7.51863 10.7322 7.72863 10.7322 7.91863C10.7322 8.15863 10.6622 8.39863 10.5222 8.62863C10.3922 8.85863 10.2022 9.09863 9.96225 9.33863L9.20225 10.1286C9.09225 10.2386 9.04225 10.3686 9.04225 10.5286C9.04225 10.6086 9.05225 10.6786 9.07225 10.7586C9.10225 10.8386 9.13225 10.8986 9.15225 10.9586C9.33225 11.2886 9.64225 11.7186 10.0822 12.2386C10.5322 12.7586 11.0122 13.2886 11.5322 13.8186C11.6322 13.9186 11.7422 14.0186 11.8422 14.1186C12.2422 14.5086 12.2522 15.1486 11.8522 15.5486ZM22.7722 18.9286C22.7709 19.306 22.6855 19.6784 22.5222 20.0186C22.3522 20.3786 22.1322 20.7186 21.8422 21.0386C21.3522 21.5786 20.8122 21.9686 20.2022 22.2186C20.1922 22.2186 20.1822 22.2286 20.1722 22.2286C19.5822 22.4686 18.9422 22.5986 18.2522 22.5986C17.2322 22.5986 16.1422 22.3586 14.9922 21.8686C13.8422 21.3786 12.6922 20.7186 11.5522 19.8886C11.1622 19.5986 10.7722 19.3086 10.4022 18.9986L13.6722 15.7286C13.9522 15.9386 14.2022 16.0986 14.4122 16.2086C14.4622 16.2286 14.5222 16.2586 14.5922 16.2886C14.6722 16.3186 14.7522 16.3286 14.8422 16.3286C15.0122 16.3286 15.1422 16.2686 15.2522 16.1586L16.0122 15.4086C16.2622 15.1586 16.5022 14.9686 16.7322 14.8486C16.9622 14.7086 17.1922 14.6386 17.4422 14.6386C17.6322 14.6386 17.8322 14.6786 18.0522 14.7686C18.2722 14.8586 18.5022 14.9886 18.7522 15.1586L22.0622 17.5086C22.3222 17.6886 22.5022 17.8986 22.6122 18.1486C22.7122 18.3986 22.7722 18.6486 22.7722 18.9286Z" fill="#34528A"/>
</svg>
