<svg xmlns="http://www.w3.org/2000/svg" width="20" height="21" viewBox="0 0 20 21" fill="none">
  <g clip-path="url(#clip0_258_7619)">
    <path d="M9.99984 1.86182C5.39984 1.86182 1.6665 5.59515 1.6665 10.1951C1.6665 14.7951 5.39984 18.5285 9.99984 18.5285C14.5998 18.5285 18.3332 14.7951 18.3332 10.1951C18.3332 5.59515 14.5998 1.86182 9.99984 1.86182ZM7.7415 13.7702L4.74984 10.7785C4.42484 10.4535 4.42484 9.92848 4.74984 9.60348C5.07484 9.27848 5.59984 9.27848 5.92484 9.60348L8.33317 12.0035L14.0665 6.27015C14.3915 5.94515 14.9165 5.94515 15.2415 6.27015C15.5665 6.59515 15.5665 7.12015 15.2415 7.44515L8.9165 13.7702C8.59984 14.0951 8.0665 14.0951 7.7415 13.7702Z" fill="#05CD99"/>
  </g>
  <defs>
    <clipPath id="clip0_258_7619">
      <rect width="20" height="20" fill="white" transform="translate(0 0.195312)"/>
    </clipPath>
  </defs>
</svg>