<svg xmlns="http://www.w3.org/2000/svg" width="13" height="13" viewBox="0 0 13 13" fill="none">
  <g clip-path="url(#clip0_59_6679)">
    <path d="M12.468 9.28483L10.8123 7.62904C10.2209 7.03769 9.2156 7.27425 8.97905 8.04299C8.80165 8.57523 8.21029 8.87091 7.67808 8.75261C6.49537 8.45694 4.89872 6.91942 4.60304 5.67757C4.42563 5.14533 4.78044 4.55398 5.31266 4.3766C6.08142 4.14005 6.31796 3.13475 5.72661 2.5434L4.07082 0.887609C3.59774 0.473662 2.88811 0.473662 2.47417 0.887609L1.35059 2.01118C0.227023 3.19389 1.46887 6.32806 4.24823 9.10743C7.02759 11.8868 10.1618 13.1878 11.3445 12.0051L12.468 10.8815C12.882 10.4084 12.882 9.69878 12.468 9.28483Z" fill="white"/>
  </g>
  <defs>
    <clipPath id="clip0_59_6679">
      <rect width="11.865" height="11.865" fill="white" transform="translate(0.925781 0.577454)"/>
    </clipPath>
  </defs>
</svg>