<svg xmlns="http://www.w3.org/2000/svg" width="25" height="25" viewBox="0 0 25 25" fill="none">
  <path d="M4.16336 2.02734H13.0634C13.8034 2.02734 14.4134 2.63734 14.4134 3.37734V4.85734C14.4134 5.39734 14.0734 6.06734 13.7434 6.40734L10.8434 8.96734C10.4434 9.30734 10.1734 9.97734 10.1734 10.5173V13.4173C10.1734 13.8173 9.90336 14.3573 9.56336 14.5673L8.62336 15.1773C7.74336 15.7173 6.53336 15.1073 6.53336 14.0273V10.4573C6.53336 9.98734 6.26336 9.37734 5.99336 9.03734L3.43336 6.33734C3.09336 5.99734 2.82336 5.39734 2.82336 4.98734V3.43734C2.81336 2.63734 3.42336 2.02734 4.16336 2.02734Z" stroke="#2B3674" stroke-width="1.5" stroke-miterlimit="10" stroke-linecap="round" stroke-linejoin="round"/>
  <path d="M2.81348 12.0276V15.0276C2.81348 20.0276 4.81348 22.0276 9.81348 22.0276H15.8135C20.8135 22.0276 22.8135 20.0276 22.8135 15.0276V9.02758C22.8135 5.90758 22.0335 3.94758 20.2235 2.92758C19.7135 2.63758 18.6935 2.41758 17.7635 2.26758M13.8135 13.0276H18.8135M11.8135 17.0276H18.8135" stroke="#2B3674" stroke-width="1.5" stroke-linecap="round" stroke-linejoin="round"/>
</svg>