<svg width="25" height="25" viewBox="0 0 25 25" fill="none" xmlns="http://www.w3.org/2000/svg">
<path d="M21.4233 9.04863C20.3733 4.42863 16.3433 2.34863 12.8033 2.34863H12.7933C9.26332 2.34863 5.22332 4.41863 4.17332 9.03863C3.00332 14.1986 6.16332 18.5686 9.02332 21.3186C10.037 22.2998 11.3925 22.8485 12.8033 22.8486C14.1633 22.8486 15.5233 22.3386 16.5733 21.3186C19.4333 18.5686 22.5933 14.2086 21.4233 9.04863ZM12.8033 14.0586C12.3897 14.0586 11.98 13.9772 11.5979 13.8189C11.2157 13.6606 10.8684 13.4285 10.5759 13.136C10.2834 12.8435 10.0514 12.4963 9.8931 12.1141C9.7348 11.7319 9.65332 11.3223 9.65332 10.9086C9.65332 10.495 9.7348 10.0854 9.8931 9.70318C10.0514 9.321 10.2834 8.97375 10.5759 8.68125C10.8684 8.38874 11.2157 8.15671 11.5979 7.99841C11.98 7.84011 12.3897 7.75863 12.8033 7.75863C13.6388 7.75863 14.44 8.09051 15.0307 8.68125C15.6214 9.27199 15.9533 10.0732 15.9533 10.9086C15.9533 11.7441 15.6214 12.5453 15.0307 13.136C14.44 13.7268 13.6388 14.0586 12.8033 14.0586Z" fill="#34528A"/>
</svg>
