<svg width="25" height="25" viewBox="0 0 25 25" fill="none" xmlns="http://www.w3.org/2000/svg">
<path d="M17.8022 4.09863H7.80225C4.80225 4.09863 2.80225 5.59863 2.80225 9.09863V16.0986C2.80225 19.5986 4.80225 21.0986 7.80225 21.0986H17.8022C20.8022 21.0986 22.8022 19.5986 22.8022 16.0986V9.09863C22.8022 5.59863 20.8022 4.09863 17.8022 4.09863ZM18.2722 10.1886L15.1422 12.6886C14.4822 13.2186 13.6422 13.4786 12.8022 13.4786C11.9622 13.4786 11.1122 13.2186 10.4622 12.6886L7.33225 10.1886C7.17925 10.0616 7.08131 9.88036 7.05895 9.68278C7.03658 9.4852 7.09151 9.28663 7.21225 9.12863C7.47225 8.80863 7.94225 8.74863 8.26225 9.00863L11.3922 11.5086C12.1522 12.1186 13.4422 12.1186 14.2022 11.5086L17.3322 9.00863C17.6522 8.74863 18.1322 8.79863 18.3822 9.12863C18.6422 9.44863 18.5922 9.92863 18.2722 10.1886Z" fill="#34528A"/>
</svg>
