<svg xmlns="http://www.w3.org/2000/svg" width="25" height="25" viewBox="0 0 25 25" fill="none">
  <path d="M16.2886 20.9832C16.0286 20.9832 15.7586 20.9732 15.4686 20.9432C14.9486 20.9032 14.3586 20.8032 13.7486 20.6532L12.0686 20.2532C7.45859 19.1632 5.94859 16.7232 7.02859 12.1232L8.00859 7.93324C8.22859 6.98324 8.48859 6.21324 8.80859 5.57324C10.5286 2.02324 13.8186 2.34324 16.1586 2.89324L17.8286 3.28324C20.1686 3.83324 21.6486 4.70324 22.4786 6.03324C23.2986 7.36324 23.4286 9.07324 22.8786 11.4132L21.8986 15.5932C21.0386 19.2532 19.2486 20.9832 16.2886 20.9832ZM13.5986 4.05324C11.9286 4.05324 10.8686 4.74324 10.1586 6.22324C9.89859 6.76324 9.66859 7.43324 9.46859 8.27324L8.48859 12.4632C7.59859 16.2432 8.62859 17.8932 12.4086 18.7932L14.0886 19.1932C14.6286 19.3232 15.1386 19.4032 15.5986 19.4432C18.3186 19.7132 19.6686 18.5232 20.4286 15.2532L21.4086 11.0732C21.8586 9.14324 21.7986 7.79324 21.1986 6.82324C20.5986 5.85324 19.4186 5.19324 17.4786 4.74324L15.8086 4.35324C14.9786 4.15324 14.2386 4.05324 13.5986 4.05324Z" fill="#819FD8"/>
  <path d="M8.81052 23.0563C6.24052 23.0563 4.60052 21.5163 3.55052 18.2663L2.27052 14.3163C0.85052 9.91632 2.12052 7.43632 6.50052 6.01632L8.08052 5.50632C8.60052 5.34632 8.99052 5.23632 9.34052 5.17632C9.63052 5.11632 9.91052 5.22632 10.0805 5.45632C10.2505 5.68632 10.2805 5.98632 10.1605 6.24632C9.90052 6.77632 9.67052 7.44632 9.48052 8.28632L8.50052 12.4763C7.61052 16.2563 8.64052 17.9063 12.4205 18.8063L14.1005 19.2063C14.6405 19.3363 15.1505 19.4163 15.6105 19.4563C15.9305 19.4863 16.1905 19.7063 16.2805 20.0163C16.3605 20.3263 16.2405 20.6463 15.9805 20.8263C15.3205 21.2763 14.4905 21.6563 13.4405 21.9963L11.8605 22.5163C10.7105 22.8763 9.71052 23.0563 8.81052 23.0563ZM8.26052 7.02632L6.97052 7.44632C3.40052 8.59632 2.55052 10.2763 3.70052 13.8563L4.98052 17.8063C6.14052 21.3763 7.82052 22.2363 11.3905 21.0863L12.9705 20.5663C13.0305 20.5463 13.0805 20.5263 13.1405 20.5063L12.0805 20.2563C7.47052 19.1663 5.96052 16.7263 7.04052 12.1263L8.02052 7.93632C8.09052 7.61632 8.17052 7.30632 8.26052 7.02632ZM17.9705 11.3163C17.9105 11.3163 17.8505 11.3063 17.7805 11.2963L12.9305 10.0663C12.7501 10.0068 12.5989 9.88105 12.5076 9.71442C12.4164 9.54779 12.3917 9.35272 12.4387 9.16861C12.4857 8.98451 12.6008 8.8251 12.7607 8.72259C12.9207 8.62007 13.1136 8.58209 13.3005 8.61632L18.1505 9.84632C18.3244 9.89325 18.4754 10.0013 18.576 10.1507C18.6766 10.3 18.7199 10.4807 18.698 10.6594C18.6761 10.8381 18.5905 11.003 18.4569 11.1236C18.3232 11.2443 18.1505 11.3127 17.9705 11.3163Z" fill="#819FD8"/>
  <path d="M15.0414 14.693C14.9814 14.693 14.9214 14.683 14.8514 14.673L11.9414 13.933C11.7609 13.8735 11.6098 13.7477 11.5185 13.5811C11.4272 13.4144 11.4026 13.2194 11.4496 13.0353C11.4965 12.8512 11.6116 12.6918 11.7716 12.5892C11.9316 12.4867 12.1245 12.4487 12.3114 12.483L15.2214 13.223C15.6214 13.323 15.8614 13.733 15.7614 14.133C15.6814 14.473 15.3814 14.693 15.0414 14.693Z" fill="#819FD8"/>
</svg>