<svg xmlns="http://www.w3.org/2000/svg" width="20" height="21" viewBox="0 0 20 21" fill="none">
  <g clip-path="url(#clip0_258_7625)">
    <path d="M9.99984 2.39307C5.3915 2.39307 1.6665 6.11807 1.6665 10.7264C1.6665 15.3347 5.3915 19.0597 9.99984 19.0597C14.6082 19.0597 18.3332 15.3347 18.3332 10.7264C18.3332 6.11807 14.6082 2.39307 9.99984 2.39307ZM13.5832 14.3097C13.2582 14.6347 12.7332 14.6347 12.4082 14.3097L9.99984 11.9014L7.5915 14.3097C7.2665 14.6347 6.7415 14.6347 6.4165 14.3097C6.0915 13.9847 6.0915 13.4597 6.4165 13.1347L8.82484 10.7264L6.4165 8.31807C6.0915 7.99307 6.0915 7.46807 6.4165 7.14307C6.7415 6.81807 7.2665 6.81807 7.5915 7.14307L9.99984 9.5514L12.4082 7.14307C12.7332 6.81807 13.2582 6.81807 13.5832 7.14307C13.9082 7.46807 13.9082 7.99307 13.5832 8.31807L11.1748 10.7264L13.5832 13.1347C13.8998 13.4514 13.8998 13.9847 13.5832 14.3097Z" fill="#EE5D50"/>
  </g>
  <defs>
    <clipPath id="clip0_258_7625">
      <rect width="20" height="20" fill="white" transform="translate(0 0.726562)"/>
    </clipPath>
  </defs>
</svg>