<svg width="16" height="15" viewBox="0 0 16 15" fill="none" xmlns="http://www.w3.org/2000/svg">
<path d="M8.31953 0.679629L10.002 4.51713C10.0653 4.66155 10.1662 4.78634 10.2942 4.87846C10.4221 4.97059 10.5725 5.02668 10.7295 5.04088L14.8283 5.40838C15.292 5.47588 15.477 6.04463 15.1408 6.37213L12.0533 8.96588C11.8033 9.17588 11.6895 9.50588 11.7583 9.82463L12.6558 14.0259C12.7345 14.4871 12.2508 14.8396 11.8358 14.6209L8.25828 12.5259C8.12335 12.4467 7.96973 12.4049 7.81328 12.4049C7.65682 12.4049 7.5032 12.4467 7.36828 12.5259L3.79078 14.6196C3.37702 14.8371 2.89202 14.4859 2.97077 14.0246L3.86827 9.82338C3.93577 9.50463 3.82328 9.17463 3.57328 8.96463L0.484525 6.37338C0.149525 6.04713 0.334525 5.47713 0.797025 5.40963L4.89578 5.04213C5.05281 5.02793 5.20316 4.97184 5.33113 4.87971C5.4591 4.78759 5.55999 4.6628 5.62328 4.51838L7.30578 0.680879C7.51453 0.260879 8.11203 0.260879 8.31953 0.679629Z" fill="#FDD835"/>
</svg>
