<svg xmlns="http://www.w3.org/2000/svg" width="17" height="17" viewBox="0 0 17 17" fill="none">
  <path d="M8.80223 13.6896H4.58889C2.48223 13.6896 1.78223 12.2896 1.78223 10.8829V5.26956C1.78223 3.16289 2.48223 2.46289 4.58889 2.46289H8.80223C10.9089 2.46289 11.6089 3.16289 11.6089 5.26956V10.8829C11.6089 12.9896 10.9022 13.6896 8.80223 13.6896Z" stroke="#34528A" stroke-linecap="round" stroke-linejoin="round"/>
  <path d="M13.4629 11.4763L11.6095 10.1763V5.96959L13.4629 4.66959C14.3695 4.03626 15.1162 4.42293 15.1162 5.53626V10.6163C15.1162 11.7296 14.3695 12.1163 13.4629 11.4763ZM8.11621 7.40959C8.38143 7.40959 8.63578 7.30424 8.82332 7.1167C9.01085 6.92916 9.11621 6.67481 9.11621 6.40959C9.11621 6.14438 9.01085 5.89002 8.82332 5.70249C8.63578 5.51495 8.38143 5.40959 8.11621 5.40959C7.85099 5.40959 7.59664 5.51495 7.4091 5.70249C7.22157 5.89002 7.11621 6.14438 7.11621 6.40959C7.11621 6.67481 7.22157 6.92916 7.4091 7.1167C7.59664 7.30424 7.85099 7.40959 8.11621 7.40959Z" stroke="#34528A" stroke-linecap="round" stroke-linejoin="round"/>
</svg>