<svg width="20" height="21" viewBox="0 0 20 21" fill="none" xmlns="http://www.w3.org/2000/svg">
<path d="M14.5415 19.6003C13.5998 19.6003 12.6082 19.3753 11.5832 18.9419C10.5832 18.5169 9.57484 17.9336 8.5915 17.2253C7.6165 16.5086 6.67484 15.7086 5.78317 14.8336C4.89984 13.9419 4.09984 13.0003 3.3915 12.0336C2.67484 11.0336 2.09984 10.0336 1.6915 9.06693C1.25817 8.03359 1.0415 7.03359 1.0415 6.09193C1.0415 5.44193 1.15817 4.82526 1.38317 4.25026C1.6165 3.65859 1.9915 3.10859 2.49984 2.63359C3.1415 2.00026 3.87484 1.68359 4.65817 1.68359C4.98317 1.68359 5.3165 1.75859 5.59984 1.89193C5.92484 2.04193 6.19984 2.26693 6.39984 2.56693L8.33317 5.29193C8.50817 5.53359 8.6415 5.76693 8.73317 6.00026C8.8415 6.25026 8.89984 6.50026 8.89984 6.74193C8.89984 7.05859 8.80817 7.36693 8.63317 7.65859C8.48001 7.91891 8.29218 8.1572 8.07484 8.36693L7.50817 8.95859C7.5165 8.98359 7.52484 9.00026 7.53317 9.01693C7.63317 9.19193 7.83317 9.49193 8.2165 9.94193C8.62484 10.4086 9.00817 10.8336 9.3915 11.2253C9.88317 11.7086 10.2915 12.0919 10.6748 12.4086C11.1498 12.8086 11.4582 13.0086 11.6415 13.1003L11.6248 13.1419L12.2332 12.5419C12.4915 12.2836 12.7415 12.0919 12.9832 11.9669C13.4415 11.6836 14.0248 11.6336 14.6082 11.8753C14.8248 11.9669 15.0582 12.0919 15.3082 12.2669L18.0748 14.2336C18.3832 14.4419 18.6082 14.7086 18.7415 15.0253C18.8665 15.3419 18.9248 15.6336 18.9248 15.9253C18.9248 16.3253 18.8332 16.7253 18.6582 17.1003C18.4832 17.4753 18.2665 17.8003 17.9915 18.1003C17.5165 18.6253 16.9998 19.0003 16.3998 19.2419C15.8248 19.4753 15.1998 19.6003 14.5415 19.6003ZM4.65817 2.93359C4.19984 2.93359 3.77484 3.13359 3.3665 3.53359C2.98317 3.89193 2.7165 4.28359 2.54984 4.70859C2.37484 5.14193 2.2915 5.60026 2.2915 6.09193C2.2915 6.86693 2.47484 7.70859 2.8415 8.57526C3.2165 9.45859 3.7415 10.3753 4.40817 11.2919C5.07484 12.2086 5.83317 13.1003 6.6665 13.9419C7.49984 14.7669 8.39984 15.5336 9.32484 16.2086C10.2248 16.8669 11.1498 17.4003 12.0665 17.7836C13.4915 18.3919 14.8248 18.5336 15.9248 18.0753C16.3498 17.9003 16.7248 17.6336 17.0665 17.2503C17.2582 17.0419 17.4082 16.8169 17.5332 16.5503C17.6332 16.3419 17.6832 16.1253 17.6832 15.9086C17.6832 15.7753 17.6582 15.6419 17.5915 15.4919C17.5382 15.3887 17.4575 15.3022 17.3582 15.2419L14.5915 13.2753C14.4248 13.1586 14.2748 13.0753 14.1332 13.0169C13.9498 12.9419 13.8748 12.8669 13.5915 13.0419C13.4248 13.1253 13.2748 13.2503 13.1082 13.4169L12.4748 14.0419C12.1498 14.3586 11.6498 14.4336 11.2665 14.2919L11.0415 14.1919C10.6998 14.0086 10.2998 13.7253 9.85817 13.3503C9.45817 13.0086 9.02484 12.6086 8.49984 12.0919C8.0915 11.6753 7.68317 11.2336 7.25817 10.7419C6.8665 10.2836 6.58317 9.89193 6.40817 9.56693L6.30817 9.31693C6.25817 9.12526 6.2415 9.01693 6.2415 8.90026C6.2415 8.60026 6.34984 8.33359 6.55817 8.12526L7.18317 7.47526C7.34984 7.30859 7.47484 7.15026 7.55817 7.00859C7.62484 6.90026 7.64984 6.80859 7.64984 6.72526C7.64984 6.65859 7.62484 6.55859 7.58317 6.45859C7.52484 6.32526 7.43317 6.17526 7.3165 6.01693L5.38317 3.28359C5.30516 3.17163 5.19873 3.08246 5.07484 3.02526C4.9415 2.96693 4.79984 2.93359 4.65817 2.93359ZM11.6248 13.1503L11.4915 13.7169L11.7165 13.1336C11.6748 13.1253 11.6415 13.1336 11.6248 13.1503Z" fill="#111111"/>
</svg>
