<svg width="81" height="81" viewBox="0 0 81 81" fill="none" xmlns="http://www.w3.org/2000/svg">
<circle cx="40.3926" cy="40.3594" r="40" fill="#E9F5FB"/>
<path d="M40.3923 41.5469C35.3732 41.5469 31.2882 37.4619 31.2882 32.4427C31.2882 27.4235 35.3732 23.3385 40.3923 23.3385C45.4115 23.3385 49.4965 27.4235 49.4965 32.4427C49.4965 37.4619 45.4115 41.5469 40.3923 41.5469ZM40.3923 25.7135C38.6089 25.7177 36.8998 26.428 35.6387 27.6891C34.3777 28.9501 33.6674 30.6593 33.6632 32.4427C33.6674 34.2261 34.3777 35.9353 35.6387 37.1963C36.8998 38.4574 38.6089 39.1677 40.3923 39.1719C42.1757 39.1677 43.8849 38.4574 45.146 37.1963C46.407 35.9353 47.1173 34.2261 47.1215 32.4427C47.1173 30.6593 46.407 28.9501 45.146 27.6891C43.8849 26.428 42.1757 25.7177 40.3923 25.7135ZM26.7915 57.3802C26.1423 57.3802 25.604 56.8419 25.604 56.1927C25.604 49.4319 32.2382 43.9219 40.3923 43.9219C41.9915 43.9219 43.559 44.1277 45.079 44.5552C45.7123 44.7294 46.0765 45.3785 45.9023 46.0119C45.7282 46.6452 45.079 47.0094 44.4457 46.8352C43.1473 46.471 41.7857 46.2969 40.3923 46.2969C33.5523 46.2969 27.979 50.7302 27.979 56.1927C27.979 56.8419 27.4407 57.3802 26.7915 57.3802Z" fill="#34528A"/>
<path d="M49.8924 57.3802C48.0349 57.3802 46.2446 56.6855 44.8732 55.4327C44.3191 54.9577 43.8282 54.3719 43.4482 53.7227C42.7516 52.5827 42.3716 51.2369 42.3716 49.8594C42.3716 47.8802 43.1316 46.0277 44.4932 44.6185C45.9182 43.146 47.8341 42.3385 49.8924 42.3385C52.0457 42.3385 54.0883 43.2569 55.4816 44.8402C56.7234 46.2172 57.4115 48.0051 57.4132 49.8594C57.4132 50.461 57.3341 51.0627 57.1757 51.6327C57.0174 52.3452 56.7166 53.0894 56.3049 53.7385C54.9907 55.9869 52.5207 57.3802 49.8924 57.3802ZM49.8924 44.7135C48.9815 44.7113 48.0863 44.9517 47.299 45.4099C46.5117 45.868 45.8605 46.5276 45.4123 47.3207C44.9642 48.1138 44.7353 49.0119 44.749 49.9227C44.7628 50.8336 45.0188 51.7243 45.4907 52.5035C45.7441 52.9469 46.0766 53.3427 46.4566 53.6752C47.4066 54.546 48.6257 55.021 49.8924 55.021C51.6816 55.021 53.3758 54.071 54.2941 52.5352C54.5633 52.0919 54.7691 51.5852 54.8799 51.0944C54.9907 50.6827 55.0382 50.2869 55.0382 49.8752C55.0382 48.6085 54.5632 47.3894 53.7082 46.4394C52.7582 45.331 51.3649 44.7135 49.8924 44.7135Z" fill="#34528A"/>
<path d="M52.2644 51.016H47.5303C46.8811 51.016 46.3428 50.4776 46.3428 49.8285C46.3428 49.1793 46.8811 48.641 47.5303 48.641H52.2644C52.9136 48.641 53.4519 49.1793 53.4519 49.8285C53.4519 50.4776 52.9136 51.016 52.2644 51.016Z" fill="#34528A"/>
<path d="M49.8926 53.437C49.2434 53.437 48.7051 52.8986 48.7051 52.2495V47.5153C48.7051 46.8661 49.2434 46.3278 49.8926 46.3278C50.5417 46.3278 51.0801 46.8661 51.0801 47.5153V52.2495C51.0801 52.9145 50.5417 53.437 49.8926 53.437Z" fill="#34528A"/>
</svg>
