<svg width="20" height="20" viewBox="0 0 25 25" fill="none" xmlns="http://www.w3.org/2000/svg">
<path d="M10.0351 12.0526H9.95515C9.89557 12.0426 9.83473 12.0426 9.77515 12.0526C6.87515 11.9626 4.68515 9.68262 4.68515 6.87262C4.68515 4.01262 7.01515 1.68262 9.87515 1.68262C12.7351 1.68262 15.0651 4.01262 15.0651 6.87262C15.0551 9.68262 12.8551 11.9626 10.0651 12.0526H10.0351ZM9.87515 3.18262C8.89731 3.18526 7.96028 3.57487 7.26884 4.26631C6.5774 4.95775 6.18779 5.89478 6.18515 6.87262C6.18515 8.87262 7.74515 10.4826 9.73515 10.5526C9.79515 10.5426 9.92515 10.5426 10.0551 10.5526C12.0151 10.4626 13.5551 8.85262 13.5651 6.87262C13.5625 5.89478 13.1729 4.95775 12.4815 4.26631C11.79 3.57487 10.853 3.18526 9.87515 3.18262ZM17.4141 12.1826C17.3841 12.1826 17.3541 12.1826 17.3241 12.1726C16.9141 12.2126 16.4941 11.9226 16.4541 11.5126C16.4141 11.1026 16.6641 10.7326 17.0741 10.6826C17.1941 10.6726 17.3242 10.6726 17.4341 10.6726C18.8941 10.5926 20.0342 9.39262 20.0342 7.92262C20.0342 6.40262 18.8041 5.17262 17.2842 5.17262C17.1861 5.17394 17.0888 5.15578 16.9979 5.11918C16.907 5.08259 16.8242 5.02829 16.7544 4.95944C16.6846 4.8906 16.6292 4.80857 16.5914 4.71813C16.5536 4.62769 16.5341 4.53064 16.5341 4.43262C16.5341 4.02262 16.8742 3.68262 17.2842 3.68262C18.4105 3.68526 19.49 4.13387 20.2864 4.93033C21.0829 5.72679 21.5315 6.80626 21.5342 7.93262C21.5342 10.2326 19.7341 12.0926 17.4441 12.1826H17.4141ZM10.0481 22.9826C8.08815 22.9826 6.11815 22.4826 4.62815 21.4826C3.23815 20.5626 2.47815 19.3026 2.47815 17.9326C2.47815 16.5626 3.23815 15.2926 4.62815 14.3626C7.62815 12.3726 12.4881 12.3726 15.4681 14.3626C16.8481 15.2826 17.6181 16.5426 17.6181 17.9126C17.6181 19.2826 16.8581 20.5526 15.4681 21.4826C13.9681 22.4826 12.0081 22.9826 10.0481 22.9826ZM5.45815 15.6226C4.49815 16.2626 3.97815 17.0826 3.97815 17.9426C3.97815 18.7926 4.50815 19.6126 5.45815 20.2426C7.94815 21.9126 12.1481 21.9126 14.6381 20.2426C15.5981 19.6026 16.1181 18.7826 16.1181 17.9226C16.1181 17.0726 15.5881 16.2526 14.6381 15.6226C12.1481 13.9626 7.94815 13.9626 5.45815 15.6226ZM19.2141 21.1826C18.8641 21.1826 18.5541 20.9426 18.4841 20.5826C18.4454 20.3879 18.4844 20.1858 18.5928 20.0195C18.7012 19.8531 18.8704 19.7358 19.0641 19.6926C19.6941 19.5626 20.2741 19.3126 20.7241 18.9626C21.2941 18.5326 21.6042 17.9926 21.6042 17.4226C21.6042 16.8526 21.2941 16.3126 20.7341 15.8926C20.2941 15.5526 19.7442 15.3126 19.0942 15.1626C18.8996 15.1182 18.7305 14.9987 18.6237 14.8301C18.5169 14.6615 18.4811 14.4575 18.5242 14.2626C18.6142 13.8626 19.0142 13.6026 19.4242 13.6926C20.2842 13.8826 21.0341 14.2226 21.6441 14.6926C22.5742 15.3926 23.1042 16.3826 23.1042 17.4226C23.1042 18.4626 22.5641 19.4526 21.6341 20.1626C21.0141 20.6426 20.2341 20.9926 19.3741 21.1626C19.3141 21.1826 19.2641 21.1826 19.2141 21.1826Z" fill="#A3AED0"/>
</svg>
