<svg width="20" height="20" viewBox="0 0 24 25" fill="none" xmlns="http://www.w3.org/2000/svg">
<path d="M20.001 12.1182H4.00101C3.77101 12.1182 3.56101 12.0182 3.42101 11.8382C3.35046 11.7511 3.30036 11.6493 3.2744 11.5403C3.24844 11.4313 3.24728 11.3178 3.27101 11.2082L4.40101 5.80824C4.77101 4.05824 5.52101 2.44824 8.49101 2.44824H15.521C18.491 2.44824 19.241 4.06824 19.611 5.80824L20.741 11.2182C20.791 11.4382 20.731 11.6682 20.591 11.8482C20.441 12.0182 20.231 12.1182 20.001 12.1182ZM4.92101 10.6182H19.071L18.131 6.11824C17.851 4.80824 17.521 3.94824 15.511 3.94824H8.49101C6.48101 3.94824 6.15101 4.80824 5.87101 6.11824L4.92101 10.6182Z" fill="#A3AED0"/>
<path d="M19.962 23.1201H18.082C16.462 23.1201 16.152 22.1901 15.952 21.5801L15.752 20.9801C15.492 20.2201 15.462 20.1201 14.562 20.1201H9.44204C8.54204 20.1201 8.48204 20.2901 8.25204 20.9801L8.05204 21.5801C7.84204 22.2001 7.54204 23.1201 5.92204 23.1201H4.04204C3.25204 23.1201 2.49204 22.7901 1.96204 22.2101C1.44204 21.6401 1.19204 20.8801 1.26204 20.1201L1.82204 14.0301C1.97204 12.3801 2.41204 10.6201 5.62204 10.6201H18.382C21.592 10.6201 22.022 12.3801 22.182 14.0301L22.742 20.1201C22.812 20.8801 22.562 21.6401 22.042 22.2101C21.512 22.7901 20.752 23.1201 19.962 23.1201ZM9.44204 18.6201H14.562C16.382 18.6201 16.812 19.4301 17.172 20.4901L17.382 21.1101C17.552 21.6201 17.552 21.6301 18.092 21.6301H19.972C20.342 21.6301 20.692 21.4801 20.942 21.2101C21.182 20.9501 21.292 20.6201 21.262 20.2701L20.702 14.1801C20.572 12.8301 20.412 12.1301 18.402 12.1301H5.62204C3.60204 12.1301 3.44204 12.8301 3.32204 14.1801L2.76204 20.2701C2.73204 20.6201 2.84204 20.9501 3.08204 21.2101C3.32204 21.4801 3.68204 21.6301 4.05204 21.6301H5.93204C6.47204 21.6301 6.47204 21.6201 6.64204 21.1201L6.84204 20.5101C7.09204 19.7101 7.46204 18.6201 9.44204 18.6201ZM4.00004 9.12012H3.00004C2.59004 9.12012 2.25004 8.78012 2.25004 8.37012C2.25004 7.96012 2.59004 7.62012 3.00004 7.62012H4.00004C4.41004 7.62012 4.75004 7.96012 4.75004 8.37012C4.75004 8.78012 4.41004 9.12012 4.00004 9.12012ZM21 9.12012H20C19.59 9.12012 19.25 8.78012 19.25 8.37012C19.25 7.96012 19.59 7.62012 20 7.62012H21C21.41 7.62012 21.75 7.96012 21.75 8.37012C21.75 8.78012 21.41 9.12012 21 9.12012ZM12 6.12012C11.59 6.12012 11.25 5.78012 11.25 5.37012V3.37012C11.25 2.96012 11.59 2.62012 12 2.62012C12.41 2.62012 12.75 2.96012 12.75 3.37012V5.37012C12.75 5.78012 12.41 6.12012 12 6.12012Z" fill="#A3AED0"/>
<path d="M13.5 6.12012H10.5C10.09 6.12012 9.75 5.78012 9.75 5.37012C9.75 4.96012 10.09 4.62012 10.5 4.62012H13.5C13.91 4.62012 14.25 4.96012 14.25 5.37012C14.25 5.78012 13.91 6.12012 13.5 6.12012ZM9 16.1201H6C5.59 16.1201 5.25 15.7801 5.25 15.3701C5.25 14.9601 5.59 14.6201 6 14.6201H9C9.41 14.6201 9.75 14.9601 9.75 15.3701C9.75 15.7801 9.41 16.1201 9 16.1201ZM18 16.1201H15C14.59 16.1201 14.25 15.7801 14.25 15.3701C14.25 14.9601 14.59 14.6201 15 14.6201H18C18.41 14.6201 18.75 14.9601 18.75 15.3701C18.75 15.7801 18.41 16.1201 18 16.1201Z" fill="#A3AED0"/>
</svg>
