<svg xmlns="http://www.w3.org/2000/svg" width="25" height="25" viewBox="0 0 25 25" fill="none">
  <path d="M18.5784 3.75C19.2384 3.75 19.8684 4.02 20.3284 4.47C20.8084 4.96 21.0684 5.59 21.0684 6.25V8.67C21.0684 9.41 20.7384 9.75 19.9884 9.75H18.0684V4.26C18.0684 3.98 18.2984 3.75 18.5784 3.75ZM18.5784 2.25C17.4684 2.25 16.5684 3.15 16.5684 4.26V11.25H19.9884C21.5684 11.25 22.5684 10.25 22.5684 8.67V6.25C22.5684 5.15 22.1184 4.15 21.3984 3.42C20.6473 2.67652 19.6351 2.25656 18.5784 2.25Z" fill="white"/>
  <path fill-rule="evenodd" clip-rule="evenodd" d="M7.56836 2.25H6.56836C3.56836 2.25 2.56836 4.04 2.56836 6.25V21.25C2.56836 22.08 3.50836 22.55 4.16836 22.05L5.87836 20.77C6.27836 20.47 6.83836 20.51 7.19836 20.87L8.85836 22.54C9.24836 22.93 9.88836 22.93 10.2784 22.54L11.9584 20.86C12.3084 20.51 12.8684 20.47 13.2584 20.77L14.9684 22.05C15.6284 22.54 16.5684 22.07 16.5684 21.25V4.25C16.5684 3.15 17.4684 2.25 18.5684 2.25H7.56836ZM9.01898 15.2227H8.75513C7.55266 15.2227 6.57748 14.2108 6.57748 12.9644C6.57748 12.6637 6.82677 12.4144 7.12739 12.4144C7.42801 12.4144 7.6773 12.6637 7.6773 12.9644C7.6773 13.6023 8.16123 14.1228 8.75513 14.1228H9.01898V11.6387L7.91193 11.2486C7.34002 11.0507 6.57014 10.6254 6.57014 9.31293C6.57014 8.18378 7.45734 7.27459 8.5425 7.27459H9.01898V6.85069C9.01898 6.55008 9.26827 6.30078 9.56889 6.30078C9.86951 6.30078 10.1188 6.55008 10.1188 6.85069V7.27459H10.3829C11.5854 7.27459 12.5605 8.28643 12.5605 9.5329C12.5605 9.83352 12.3112 10.0828 12.0106 10.0828C11.71 10.0828 11.4607 9.83352 11.4607 9.5329C11.4607 8.895 10.9768 8.37441 10.3829 8.37441H10.1188V10.8585L11.2261 11.2486C11.798 11.4466 12.5679 11.8719 12.5679 13.1843C12.5605 14.3061 11.6807 15.2227 10.5955 15.2227H10.1188V15.6493C10.1188 15.9499 9.86951 16.1992 9.56889 16.1992C9.26827 16.1992 9.01898 15.9499 9.01898 15.6493V15.2227ZM10.1188 14.1228H10.5955C11.0721 14.1228 11.468 13.6976 11.468 13.1843C11.468 12.5464 11.2407 12.4218 10.8668 12.2898L10.1188 12.0262V14.1228ZM9.01898 10.4709L8.27121 10.2075C7.89727 10.0755 7.66997 9.95083 7.66997 9.31293C7.66997 8.79968 8.06591 8.37441 8.5425 8.37441H9.01898V10.4709Z" fill="white"/>
</svg>