<svg width="20" height="20" viewBox="0 0 24 24" fill="none" xmlns="http://www.w3.org/2000/svg">
<path d="M21.7499 7.99813C21.7499 8.40812 21.4099 8.74813 20.9999 8.74813H2.99994C2.58994 8.74813 2.24994 8.40812 2.24994 7.99813C2.24994 7.58813 2.58994 7.24813 2.99994 7.24813H4.01994L4.39994 5.43813C4.75994 3.68813 5.50994 2.07812 8.48994 2.07812H15.5099C18.4899 2.07812 19.2399 3.68813 19.5999 5.43813L19.9799 7.24813H20.9999C21.4099 7.24813 21.7499 7.58813 21.7499 7.99813ZM22.1819 13.6601C22.0319 12.0101 21.5919 10.2501 18.3819 10.2501H5.62094C2.41094 10.2501 1.98094 12.0101 1.82094 13.6601L1.26094 19.7501C1.19094 20.5101 1.44094 21.2701 1.96094 21.8401C2.49094 22.4201 3.24094 22.7501 4.04094 22.7501H5.92094C7.54094 22.7501 7.85094 21.8201 8.05094 21.2101L8.25094 20.6101C8.48094 19.9201 8.54094 19.7501 9.44094 19.7501H14.5609C15.4609 19.7501 15.4909 19.8501 15.7509 20.6101L15.9509 21.2101C16.1509 21.8201 16.4609 22.7501 18.0809 22.7501H19.9609C20.7509 22.7501 21.5109 22.4201 22.0409 21.8401C22.5609 21.2701 22.8109 20.5101 22.7409 19.7501L22.1819 13.6601ZM9.00194 15.7501H6.00194C5.59194 15.7501 5.25194 15.4101 5.25194 15.0001C5.25194 14.5901 5.59194 14.2501 6.00194 14.2501H9.00194C9.41194 14.2501 9.75194 14.5901 9.75194 15.0001C9.75194 15.4101 9.41194 15.7501 9.00194 15.7501ZM18.0019 15.7501H15.0019C14.5919 15.7501 14.2519 15.4101 14.2519 15.0001C14.2519 14.5901 14.5919 14.2501 15.0019 14.2501H18.0019C18.4119 14.2501 18.7519 14.5901 18.7519 15.0001C18.7519 15.4101 18.4119 15.7501 18.0019 15.7501Z" fill="#4675F1"/>
</svg>
