<svg xmlns="http://www.w3.org/2000/svg" width="25" height="24" viewBox="0 0 25 24" fill="none">
  <path d="M19.9503 11.75H16.5303C16.1203 11.75 15.7803 11.41 15.7803 11V4.01C15.7803 3.27 16.0703 2.58 16.5903 2.06C17.1103 1.54 17.8003 1.25 18.5403 1.25H18.5503C19.8003 1.26 20.9803 1.75 21.8803 2.64C22.7803 3.55 23.2703 4.75 23.2703 6V8.42C23.2803 10.41 21.9403 11.75 19.9503 11.75ZM17.2803 10.25H19.9503C21.1103 10.25 21.7803 9.58 21.7803 8.42V6C21.7803 5.14 21.4403 4.32 20.8303 3.7C20.2203 3.1 19.4103 2.76 18.5503 2.75H18.5403C18.2103 2.75 17.8903 2.88 17.6503 3.12C17.4103 3.36 17.2803 3.67 17.2803 4.01V10.25Z" fill="#819FD8"/>
  <path d="M9.52809 23.33C9.05809 23.33 8.61809 23.15 8.28809 22.81L6.62809 21.14C6.58539 21.0963 6.52795 21.07 6.46695 21.0663C6.40594 21.0626 6.34575 21.0817 6.29809 21.12L4.58809 22.4C4.05809 22.8 3.35809 22.87 2.75809 22.57C2.15809 22.27 1.78809 21.67 1.78809 21V6C1.78809 2.98 3.51809 1.25 6.53809 1.25H18.5381C18.9481 1.25 19.2881 1.59 19.2881 2C19.2881 2.41 18.9481 2.75 18.5381 2.75C17.8481 2.75 17.2881 3.31 17.2881 4V21C17.2881 21.67 16.9181 22.27 16.3181 22.57C15.7281 22.87 15.0181 22.8 14.4881 22.4L12.7781 21.12C12.7314 21.0839 12.6732 21.0661 12.6143 21.0697C12.5554 21.0734 12.4999 21.0984 12.4581 21.14L10.7781 22.82C10.4381 23.15 9.99809 23.33 9.52809 23.33ZM6.43809 19.57C6.89809 19.57 7.34809 19.74 7.68809 20.09L9.34809 21.76C9.40809 21.82 9.48809 21.83 9.52809 21.83C9.56809 21.83 9.64809 21.82 9.70809 21.76L11.3881 20.08C12.0081 19.46 12.9881 19.4 13.6781 19.93L15.3781 21.2C15.4881 21.28 15.5881 21.25 15.6381 21.22C15.6881 21.19 15.7781 21.13 15.7781 21V4C15.7781 3.55 15.8881 3.12 16.0781 2.75H6.52809C4.30809 2.75 3.27809 3.78 3.27809 6V21C3.27809 21.14 3.36809 21.2 3.41809 21.23C3.47809 21.26 3.57809 21.28 3.67809 21.2L5.38809 19.92C5.69809 19.69 6.06809 19.57 6.43809 19.57Z" fill="#819FD8"/>
  <path d="M10.5947 14.7576H8.75432C7.55185 14.7576 6.57667 13.7458 6.57667 12.4993C6.57667 12.1987 6.82596 11.9494 7.12658 11.9494C7.4272 11.9494 7.67649 12.1987 7.67649 12.4993C7.67649 13.1372 8.16042 13.6578 8.75432 13.6578H10.5947C11.0713 13.6578 11.4672 13.2326 11.4672 12.7193C11.4672 12.0814 11.2399 11.9568 10.866 11.8248L7.91112 10.7836C7.33921 10.5856 6.56934 10.1604 6.56934 8.84791C6.56934 7.71876 7.45653 6.80957 8.54169 6.80957H10.3821C11.5845 6.80957 12.5597 7.82141 12.5597 9.06788C12.5597 9.3685 12.3104 9.61779 12.0098 9.61779C11.7092 9.61779 11.4599 9.3685 11.4599 9.06788C11.4599 8.42998 10.976 7.9094 10.3821 7.9094H8.54169C8.0651 7.9094 7.66916 8.33466 7.66916 8.84791C7.66916 9.48581 7.89646 9.61046 8.2704 9.74244L11.2253 10.7836C11.7972 10.9816 12.5671 11.4068 12.5671 12.7193C12.5597 13.8411 11.6799 14.7576 10.5947 14.7576Z" fill="#819FD8"/>
  <path d="M9.56749 15.7344C9.26687 15.7344 9.01758 15.4851 9.01758 15.1845V6.38585C9.01758 6.08523 9.26687 5.83594 9.56749 5.83594C9.86811 5.83594 10.1174 6.08523 10.1174 6.38585V15.1845C10.1174 15.4851 9.86811 15.7344 9.56749 15.7344Z" fill="#819FD8"/>
</svg>