<svg xmlns="http://www.w3.org/2000/svg" width="24" height="25" viewBox="0 0 24 25" fill="none">
  <path d="M11 20.0899V4.28994C11 2.78994 10.36 2.18994 8.77 2.18994H4.73C3.14 2.18994 2.5 2.78994 2.5 4.28994V20.0899C2.5 21.5899 3.14 22.1899 4.73 22.1899H8.77C10.36 22.1899 11 21.5899 11 20.0899ZM21.5 11.0899V4.28994C21.5 2.78994 20.86 2.18994 19.27 2.18994H15.23C13.64 2.18994 13 2.78994 13 4.28994V11.0899C13 12.5899 13.64 13.1899 15.23 13.1899H19.27C20.86 13.1899 21.5 12.5899 21.5 11.0899ZM21.5 20.0899V17.2899C21.5 15.7899 20.86 15.1899 19.27 15.1899H15.23C13.64 15.1899 13 15.7899 13 17.2899V20.0899C13 21.5899 13.64 22.1899 15.23 22.1899H19.27C20.86 22.1899 21.5 21.5899 21.5 20.0899Z" fill="#E9F5FB"/>
</svg>