<svg xmlns="http://www.w3.org/2000/svg" width="25" height="24" viewBox="0 0 25 24" fill="none">
  <path d="M16.5303 22.75H8.53027C4.88027 22.75 2.78027 20.65 2.78027 17V7C2.78027 3.35 4.88027 1.25 8.53027 1.25H16.5303C20.1803 1.25 22.2803 3.35 22.2803 7V17C22.2803 20.65 20.1803 22.75 16.5303 22.75ZM8.53027 2.75C5.67027 2.75 4.28027 4.14 4.28027 7V17C4.28027 19.86 5.67027 21.25 8.53027 21.25H16.5303C19.3903 21.25 20.7803 19.86 20.7803 17V7C20.7803 4.14 19.3903 2.75 16.5303 2.75H8.53027Z" fill="#819FD8"/>
  <path d="M9.53027 11.11C9.36674 11.1108 9.20466 11.0793 9.0533 11.0174C8.90193 10.9555 8.76427 10.8644 8.64817 10.7492C8.53207 10.634 8.43981 10.4971 8.37669 10.3462C8.31356 10.1954 8.2808 10.0335 8.28027 9.87V2C8.28027 1.59 8.62027 1.25 9.03027 1.25H16.0303C16.4403 1.25 16.7803 1.59 16.7803 2V9.86C16.7803 10.36 16.4903 10.81 16.0303 11C15.5803 11.2 15.0503 11.11 14.6803 10.77L12.5303 8.8L10.3803 10.78C10.1403 11 9.84027 11.11 9.53027 11.11ZM12.5303 7.21C12.8303 7.21 13.1403 7.32 13.3803 7.54L15.2803 9.29V2.75H9.78027V9.29L11.6803 7.54C11.9203 7.32 12.2303 7.21 12.5303 7.21ZM18.0303 14.75H13.7803C13.3703 14.75 13.0303 14.41 13.0303 14C13.0303 13.59 13.3703 13.25 13.7803 13.25H18.0303C18.4403 13.25 18.7803 13.59 18.7803 14C18.7803 14.41 18.4403 14.75 18.0303 14.75ZM18.0303 18.75H9.53027C9.12027 18.75 8.78027 18.41 8.78027 18C8.78027 17.59 9.12027 17.25 9.53027 17.25H18.0303C18.4403 17.25 18.7803 17.59 18.7803 18C18.7803 18.41 18.4403 18.75 18.0303 18.75Z" fill="#819FD8"/>
</svg>