<svg xmlns="http://www.w3.org/2000/svg" width="18" height="21" viewBox="0 0 18 21" fill="none">
  <path d="M13.98 0.849927C13.69 0.809927 13.43 1.05993 13.43 1.34993V7.36993C13.43 8.12993 12.98 8.81993 12.28 9.12993C11.58 9.42993 10.77 9.29993 10.21 8.77993L9.34 7.97993C9.24799 7.8933 9.12638 7.84506 9 7.84506C8.87362 7.84506 8.75201 7.8933 8.66 7.97993L7.79 8.77993C7.43 9.11993 6.96 9.28993 6.49 9.28993C6.22498 9.29088 5.9627 9.23638 5.72 9.12993C5.02 8.81993 4.57 8.12993 4.57 7.36993V1.34993C4.57 1.05993 4.31 0.809927 4.02 0.849927C1.22 1.19993 0 3.08993 0 5.78993V15.7899C0 18.7899 1.5 20.7899 5 20.7899H13C16.5 20.7899 18 18.7899 18 15.7899V5.78993C18 3.08993 16.78 1.19993 13.98 0.849927ZM14.5 17.5399H6C5.59 17.5399 5.25 17.1999 5.25 16.7899C5.25 16.3799 5.59 16.0399 6 16.0399H14.5C14.91 16.0399 15.25 16.3799 15.25 16.7899C15.25 17.1999 14.91 17.5399 14.5 17.5399ZM14.5 13.5399H10.25C9.84 13.5399 9.5 13.1999 9.5 12.7899C9.5 12.3799 9.84 12.0399 10.25 12.0399H14.5C14.91 12.0399 15.25 12.3799 15.25 12.7899C15.25 13.1999 14.91 13.5399 14.5 13.5399Z" fill="white"/>
</svg>