<svg xmlns="http://www.w3.org/2000/svg" width="25" height="24" viewBox="0 0 25 24" fill="none">
  <path d="M4.94 16.75C4.7 19.64 6.88 22 9.78 22H14.57C17.83 22 20.07 19.37 19.53 16.15C18.96 12.77 15.7 10 12.27 10C8.55 10 5.25 13.04 4.94 16.75ZM11 7.5C11.663 7.5 12.2989 7.23661 12.7678 6.76777C13.2366 6.29893 13.5 5.66304 13.5 5C13.5 4.33696 13.2366 3.70107 12.7678 3.23223C12.2989 2.76339 11.663 2.5 11 2.5C10.337 2.5 9.70107 2.76339 9.23223 3.23223C8.76339 3.70107 8.5 4.33696 8.5 5C8.5 5.66304 8.76339 6.29893 9.23223 6.76777C9.70107 7.23661 10.337 7.5 11 7.5ZM17.83 8.7C18.3604 8.7 18.8691 8.48929 19.2442 8.11421C19.6193 7.73914 19.83 7.23043 19.83 6.7C19.83 6.16957 19.6193 5.66086 19.2442 5.28579C18.8691 4.91071 18.3604 4.7 17.83 4.7C17.2996 4.7 16.7909 4.91071 16.4158 5.28579C16.0407 5.66086 15.83 6.16957 15.83 6.7C15.83 7.23043 16.0407 7.73914 16.4158 8.11421C16.7909 8.48929 17.2996 8.7 17.83 8.7ZM21.53 12.7C21.727 12.7 21.922 12.6612 22.104 12.5858C22.286 12.5104 22.4514 12.3999 22.5907 12.2607C22.7299 12.1214 22.8404 11.956 22.9158 11.774C22.9912 11.592 23.03 11.397 23.03 11.2C23.03 11.003 22.9912 10.808 22.9158 10.626C22.8404 10.444 22.7299 10.2786 22.5907 10.1393C22.4514 10.0001 22.286 9.88956 22.104 9.81418C21.922 9.7388 21.727 9.7 21.53 9.7C21.1322 9.7 20.7506 9.85803 20.4693 10.1393C20.188 10.4206 20.03 10.8022 20.03 11.2C20.03 11.5978 20.188 11.9794 20.4693 12.2607C20.7506 12.542 21.1322 12.7 21.53 12.7ZM4.5 10.7C5.03043 10.7 5.53914 10.4893 5.91421 10.1142C6.28929 9.73914 6.5 9.23043 6.5 8.7C6.5 8.16957 6.28929 7.66086 5.91421 7.28579C5.53914 6.91071 5.03043 6.7 4.5 6.7C3.96957 6.7 3.46086 6.91071 3.08579 7.28579C2.71071 7.66086 2.5 8.16957 2.5 8.7C2.5 9.23043 2.71071 9.73914 3.08579 10.1142C3.46086 10.4893 3.96957 10.7 4.5 10.7Z" stroke="#819FD8" stroke-width="1.5" stroke-linecap="round" stroke-linejoin="round"/>
</svg>