<svg xmlns="http://www.w3.org/2000/svg" width="22" height="21" viewBox="0 0 22 21" fill="none">
  <path d="M18.08 14.1385C17.49 10.6085 14.1 7.73846 10.52 7.73846C6.63 7.73846 3.21 10.8885 2.88 14.7685C2.75 16.2685 3.23 17.6885 4.22 18.7585C5.2 19.8285 6.58 20.4185 8.08 20.4185H12.76C14.45 20.4185 15.93 19.7585 16.94 18.5685C17.95 17.3785 18.35 15.7985 18.08 14.1385ZM9.28 6.27846C10.0571 6.27846 10.8023 5.96976 11.3518 5.42028C11.9013 4.8708 12.21 4.12554 12.21 3.34846C12.21 2.57137 11.9013 1.82612 11.3518 1.27663C10.8023 0.727153 10.0571 0.418457 9.28 0.418457C8.50292 0.418457 7.75766 0.727153 7.20818 1.27663C6.6587 1.82612 6.35 2.57137 6.35 3.34846C6.35 4.12554 6.6587 4.8708 7.20818 5.42028C7.75766 5.96976 8.50292 6.27846 9.28 6.27846ZM15.94 7.44646C16.5871 7.44646 17.2078 7.18939 17.6653 6.7318C18.1229 6.27421 18.38 5.65358 18.38 5.00646C18.38 4.35933 18.1229 3.73871 17.6653 3.28112C17.2078 2.82353 16.5871 2.56646 15.94 2.56646C15.2929 2.56646 14.6722 2.82353 14.2147 3.28112C13.7571 3.73871 13.5 4.35933 13.5 5.00646C13.5 5.65358 13.7571 6.27421 14.2147 6.7318C14.6722 7.18939 15.2929 7.44646 15.94 7.44646ZM19.55 11.3495C19.8061 11.3495 20.0596 11.299 20.2962 11.201C20.5328 11.103 20.7478 10.9594 20.9289 10.7783C21.1099 10.5972 21.2536 10.3823 21.3516 10.1457C21.4496 9.90911 21.5 9.65553 21.5 9.39946C21.5 9.14338 21.4496 8.88981 21.3516 8.65322C21.2536 8.41664 21.1099 8.20167 20.9289 8.0206C20.7478 7.83952 20.5328 7.69589 20.2962 7.59789C20.0596 7.4999 19.8061 7.44946 19.55 7.44946C19.0328 7.44946 18.5368 7.6549 18.1711 8.0206C17.8054 8.38629 17.6 8.88229 17.6 9.39946C17.6 9.91663 17.8054 10.4126 18.1711 10.7783C18.5368 11.144 19.0328 11.3495 19.55 11.3495ZM2.94 9.40046C3.26043 9.40046 3.57771 9.33734 3.87375 9.21472C4.16978 9.0921 4.43877 8.91237 4.66534 8.6858C4.89192 8.45922 5.07164 8.19024 5.19427 7.89421C5.31689 7.59817 5.38 7.28088 5.38 6.96046C5.38 6.64003 5.31689 6.32274 5.19427 6.02671C5.07164 5.73068 4.89192 5.46169 4.66534 5.23512C4.43877 5.00854 4.16978 4.82881 3.87375 4.70619C3.57771 4.58357 3.26043 4.52046 2.94 4.52046C2.29287 4.52046 1.67225 4.77753 1.21466 5.23512C0.757071 5.69271 0.5 6.31333 0.5 6.96046C0.5 7.60758 0.757071 8.22821 1.21466 8.6858C1.67225 9.14339 2.29287 9.40046 2.94 9.40046Z" fill="#E9F5FB"/>
</svg>