<svg width="20" height="20" viewBox="0 0 25 25" fill="none" xmlns="http://www.w3.org/2000/svg">
<path d="M19.8248 15.7805C19.2348 12.2505 15.8448 9.38055 12.2648 9.38055C8.37475 9.38055 4.95475 12.5305 4.62475 16.4105C4.49475 17.9105 4.97475 19.3305 5.96475 20.4005C6.94475 21.4705 8.32475 22.0605 9.82475 22.0605H14.5048C16.1948 22.0605 17.6748 21.4005 18.6848 20.2105C19.6948 19.0205 20.0948 17.4405 19.8248 15.7805ZM11.0248 7.92055C11.8018 7.92055 12.5471 7.61185 13.0966 7.06237C13.6461 6.51289 13.9548 5.76763 13.9548 4.99055C13.9548 4.21346 13.6461 3.46821 13.0966 2.91872C12.5471 2.36924 11.8018 2.06055 11.0248 2.06055C10.2477 2.06055 9.50241 2.36924 8.95293 2.91872C8.40345 3.46821 8.09475 4.21346 8.09475 4.99055C8.09475 5.76763 8.40345 6.51289 8.95293 7.06237C9.50241 7.61185 10.2477 7.92055 11.0248 7.92055ZM17.6848 9.08855C18.3319 9.08855 18.9525 8.83148 19.4101 8.37389C19.8677 7.9163 20.1248 7.29567 20.1248 6.64855C20.1248 6.00142 19.8677 5.3808 19.4101 4.92321C18.9525 4.46562 18.3319 4.20855 17.6848 4.20855C17.0376 4.20855 16.417 4.46562 15.9594 4.92321C15.5018 5.3808 15.2448 6.00142 15.2448 6.64855C15.2448 7.29567 15.5018 7.9163 15.9594 8.37389C16.417 8.83148 17.0376 9.08855 17.6848 9.08855ZM21.2948 12.9915C21.5508 12.9915 21.8044 12.9411 22.041 12.8431C22.2776 12.7451 22.4925 12.6015 22.6736 12.4204C22.8547 12.2393 22.9983 12.0244 23.0963 11.7878C23.1943 11.5512 23.2448 11.2976 23.2448 11.0415C23.2448 10.7855 23.1943 10.5319 23.0963 10.2953C22.9983 10.0587 22.8547 9.84376 22.6736 9.66269C22.4925 9.48161 22.2776 9.33798 22.041 9.23998C21.8044 9.14198 21.5508 9.09155 21.2948 9.09155C20.7776 9.09155 20.2816 9.29699 19.9159 9.66269C19.5502 10.0284 19.3448 10.5244 19.3448 11.0415C19.3448 11.5587 19.5502 12.0547 19.9159 12.4204C20.2816 12.7861 20.7776 12.9915 21.2948 12.9915ZM4.68475 11.0425C5.00518 11.0425 5.32246 10.9794 5.6185 10.8568C5.91453 10.7342 6.18352 10.5545 6.41009 10.3279C6.63667 10.1013 6.8164 9.83233 6.93902 9.53629C7.06164 9.24026 7.12475 8.92297 7.12475 8.60255C7.12475 8.28212 7.06164 7.96483 6.93902 7.6688C6.8164 7.37277 6.63667 7.10378 6.41009 6.87721C6.18352 6.65063 5.91453 6.4709 5.6185 6.34828C5.32246 6.22566 5.00518 6.16255 4.68475 6.16255C4.03762 6.16255 3.417 6.41962 2.95941 6.87721C2.50182 7.33479 2.24475 7.95542 2.24475 8.60255C2.24475 9.24967 2.50182 9.8703 2.95941 10.3279C3.417 10.7855 4.03762 11.0425 4.68475 11.0425Z" fill="#4675F1"/>
</svg>
