<svg width="20" height="20" viewBox="0 0 25 24" fill="none" xmlns="http://www.w3.org/2000/svg">
<path d="M5.05633 16.75C4.81633 19.64 6.99633 22 9.89633 22H14.6863C17.9463 22 20.1863 19.37 19.6463 16.15C19.0763 12.77 15.8163 10 12.3863 10C8.66633 10 5.36633 13.04 5.05633 16.75ZM11.1163 7.5C11.7794 7.5 12.4153 7.23661 12.8841 6.76777C13.3529 6.29893 13.6163 5.66304 13.6163 5C13.6163 4.33696 13.3529 3.70107 12.8841 3.23223C12.4153 2.76339 11.7794 2.5 11.1163 2.5C10.4533 2.5 9.81741 2.76339 9.34857 3.23223C8.87973 3.70107 8.61633 4.33696 8.61633 5C8.61633 5.66304 8.87973 6.29893 9.34857 6.76777C9.81741 7.23661 10.4533 7.5 11.1163 7.5ZM17.9463 8.7C18.4768 8.7 18.9855 8.48929 19.3605 8.11421C19.7356 7.73914 19.9463 7.23043 19.9463 6.7C19.9463 6.16957 19.7356 5.66086 19.3605 5.28579C18.9855 4.91071 18.4768 4.7 17.9463 4.7C17.4159 4.7 16.9072 4.91071 16.5321 5.28579C16.157 5.66086 15.9463 6.16957 15.9463 6.7C15.9463 7.23043 16.157 7.73914 16.5321 8.11421C16.9072 8.48929 17.4159 8.7 17.9463 8.7ZM21.6463 12.7C21.8433 12.7 22.0384 12.6612 22.2204 12.5858C22.4023 12.5104 22.5677 12.3999 22.707 12.2607C22.8463 12.1214 22.9568 11.956 23.0322 11.774C23.1075 11.592 23.1463 11.397 23.1463 11.2C23.1463 11.003 23.1075 10.808 23.0322 10.626C22.9568 10.444 22.8463 10.2786 22.707 10.1393C22.5677 10.0001 22.4023 9.88956 22.2204 9.81418C22.0384 9.7388 21.8433 9.7 21.6463 9.7C21.2485 9.7 20.867 9.85803 20.5857 10.1393C20.3044 10.4206 20.1463 10.8022 20.1463 11.2C20.1463 11.5978 20.3044 11.9794 20.5857 12.2607C20.867 12.542 21.2485 12.7 21.6463 12.7ZM4.61633 10.7C5.14677 10.7 5.65547 10.4893 6.03055 10.1142C6.40562 9.73914 6.61633 9.23043 6.61633 8.7C6.61633 8.16957 6.40562 7.66086 6.03055 7.28579C5.65547 6.91071 5.14677 6.7 4.61633 6.7C4.0859 6.7 3.57719 6.91071 3.20212 7.28579C2.82705 7.66086 2.61633 8.16957 2.61633 8.7C2.61633 9.23043 2.82705 9.73914 3.20212 10.1142C3.57719 10.4893 4.0859 10.7 4.61633 10.7Z" stroke="#A3AED0" stroke-width="1.5" stroke-linecap="round" stroke-linejoin="round"/>
</svg>
