<svg xmlns="http://www.w3.org/2000/svg" width="25" height="24" viewBox="0 0 25 24" fill="none">
  <path d="M8.53027 5.75C8.12027 5.75 7.78027 5.41 7.78027 5V2C7.78027 1.59 8.12027 1.25 8.53027 1.25C8.94027 1.25 9.28027 1.59 9.28027 2V5C9.28027 5.41 8.94027 5.75 8.53027 5.75ZM16.5303 5.75C16.1203 5.75 15.7803 5.41 15.7803 5V2C15.7803 1.59 16.1203 1.25 16.5303 1.25C16.9403 1.25 17.2803 1.59 17.2803 2V5C17.2803 5.41 16.9403 5.75 16.5303 5.75ZM9.03027 14.498C8.90027 14.498 8.77027 14.468 8.65027 14.418C8.52027 14.368 8.42027 14.298 8.32027 14.208C8.14027 14.018 8.03027 13.768 8.03027 13.498C8.03027 13.368 8.06027 13.238 8.11027 13.118C8.16027 12.998 8.23027 12.888 8.32027 12.788C8.42027 12.698 8.52027 12.628 8.65027 12.578C9.01027 12.428 9.46027 12.508 9.74027 12.788C9.92027 12.978 10.0303 13.238 10.0303 13.498C10.0303 13.558 10.0203 13.628 10.0103 13.698C10.0003 13.758 9.98027 13.818 9.95027 13.878C9.93027 13.938 9.90027 13.998 9.86027 14.058C9.83027 14.108 9.78027 14.158 9.74027 14.208C9.55027 14.388 9.29027 14.498 9.03027 14.498ZM12.5303 14.499C12.4003 14.499 12.2703 14.469 12.1503 14.419C12.0203 14.369 11.9203 14.299 11.8203 14.209C11.6403 14.019 11.5303 13.769 11.5303 13.499C11.5303 13.369 11.5603 13.239 11.6103 13.119C11.6603 12.999 11.7303 12.889 11.8203 12.789C11.9203 12.699 12.0203 12.629 12.1503 12.579C12.5103 12.419 12.9603 12.509 13.2403 12.789C13.4203 12.979 13.5303 13.239 13.5303 13.499C13.5303 13.559 13.5203 13.629 13.5103 13.699C13.5003 13.759 13.4803 13.819 13.4503 13.879C13.4303 13.939 13.4003 13.999 13.3603 14.059C13.3303 14.109 13.2803 14.159 13.2403 14.209C13.0503 14.389 12.7903 14.499 12.5303 14.499ZM16.0303 14.499C15.9003 14.499 15.7703 14.469 15.6503 14.419C15.5203 14.369 15.4203 14.299 15.3203 14.209L15.2003 14.059C15.1624 14.0033 15.1321 13.9427 15.1103 13.879C15.0814 13.8223 15.0612 13.7617 15.0503 13.699C15.0403 13.629 15.0303 13.559 15.0303 13.499C15.0303 13.239 15.1403 12.979 15.3203 12.789C15.4203 12.699 15.5203 12.629 15.6503 12.579C16.0203 12.419 16.4603 12.509 16.7403 12.789C16.9203 12.979 17.0303 13.239 17.0303 13.499C17.0303 13.559 17.0203 13.629 17.0103 13.699C17.0003 13.759 16.9803 13.819 16.9503 13.879C16.9303 13.939 16.9003 13.999 16.8603 14.059C16.8303 14.109 16.7803 14.159 16.7403 14.209C16.5503 14.389 16.2903 14.499 16.0303 14.499ZM9.03027 18C8.90027 18 8.77027 17.97 8.65027 17.92C8.53027 17.87 8.42027 17.8 8.32027 17.71C8.14027 17.52 8.03027 17.26 8.03027 17C8.03027 16.87 8.06027 16.74 8.11027 16.62C8.16027 16.49 8.23027 16.38 8.32027 16.29C8.69027 15.92 9.37027 15.92 9.74027 16.29C9.92027 16.48 10.0303 16.74 10.0303 17C10.0303 17.26 9.92027 17.52 9.74027 17.71C9.55027 17.89 9.29027 18 9.03027 18ZM12.5303 18C12.2703 18 12.0103 17.89 11.8203 17.71C11.6403 17.52 11.5303 17.26 11.5303 17C11.5303 16.87 11.5603 16.74 11.6103 16.62C11.6603 16.49 11.7303 16.38 11.8203 16.29C12.1903 15.92 12.8703 15.92 13.2403 16.29C13.3303 16.38 13.4003 16.49 13.4503 16.62C13.5003 16.74 13.5303 16.87 13.5303 17C13.5303 17.26 13.4203 17.52 13.2403 17.71C13.0503 17.89 12.7903 18 12.5303 18ZM16.0303 18C15.7703 18 15.5103 17.89 15.3203 17.71C15.2277 17.6161 15.1562 17.5036 15.1103 17.38C15.0589 17.2598 15.0317 17.1307 15.0303 17C15.0303 16.87 15.0603 16.74 15.1103 16.62C15.1603 16.49 15.2303 16.38 15.3203 16.29C15.5503 16.06 15.9003 15.95 16.2203 16.02C16.2903 16.03 16.3503 16.05 16.4103 16.08C16.4703 16.1 16.5303 16.13 16.5903 16.17C16.6403 16.2 16.6903 16.25 16.7403 16.29C16.9203 16.48 17.0303 16.74 17.0303 17C17.0303 17.26 16.9203 17.52 16.7403 17.71C16.5503 17.89 16.2903 18 16.0303 18ZM21.0303 9.84H4.03027C3.62027 9.84 3.28027 9.5 3.28027 9.09C3.28027 8.68 3.62027 8.34 4.03027 8.34H21.0303C21.4403 8.34 21.7803 8.68 21.7803 9.09C21.7803 9.5 21.4403 9.84 21.0303 9.84Z" fill="#819FD8"/>
  <path d="M16.5303 22.75H8.53027C4.88027 22.75 2.78027 20.65 2.78027 17V8.5C2.78027 4.85 4.88027 2.75 8.53027 2.75H16.5303C20.1803 2.75 22.2803 4.85 22.2803 8.5V17C22.2803 20.65 20.1803 22.75 16.5303 22.75ZM8.53027 4.25C5.67027 4.25 4.28027 5.64 4.28027 8.5V17C4.28027 19.86 5.67027 21.25 8.53027 21.25H16.5303C19.3903 21.25 20.7803 19.86 20.7803 17V8.5C20.7803 5.64 19.3903 4.25 16.5303 4.25H8.53027Z" fill="#819FD8"/>
</svg>