<svg xmlns="http://www.w3.org/2000/svg" width="25" height="25" viewBox="0 0 25 25" fill="none">
  <path d="M17.0352 4.24213V2.68213C17.0352 2.27213 16.6952 1.93213 16.2852 1.93213C15.8752 1.93213 15.5352 2.27213 15.5352 2.68213V4.18213H9.03516V2.68213C9.03516 2.27213 8.69516 1.93213 8.28516 1.93213C7.87516 1.93213 7.53516 2.27213 7.53516 2.68213V4.24213C4.83516 4.49213 3.52516 6.10213 3.32516 8.49213C3.30516 8.78213 3.54516 9.02213 3.82516 9.02213H20.7452C21.0352 9.02213 21.2752 8.77213 21.2452 8.49213C21.0452 6.10213 19.7352 4.49213 17.0352 4.24213ZM20.2852 10.5221H4.28516C3.73516 10.5221 3.28516 10.9721 3.28516 11.5221V17.6821C3.28516 20.6821 4.78516 22.6821 8.28516 22.6821H16.2852C19.7852 22.6821 21.2852 20.6821 21.2852 17.6821V11.5221C21.2852 10.9721 20.8352 10.5221 20.2852 10.5221ZM9.49516 18.8921C9.44516 18.9321 9.39516 18.9821 9.34516 19.0121C9.28516 19.0521 9.22516 19.0821 9.16516 19.1021C9.10516 19.1321 9.04516 19.1521 8.98516 19.1621C8.91516 19.1721 8.85516 19.1821 8.78516 19.1821C8.65516 19.1821 8.52516 19.1521 8.40516 19.1021C8.27516 19.0521 8.17516 18.9821 8.07516 18.8921C7.89516 18.7021 7.78516 18.4421 7.78516 18.1821C7.78516 17.9221 7.89516 17.6621 8.07516 17.4721C8.17516 17.3821 8.27516 17.3121 8.40516 17.2621C8.58516 17.1821 8.78516 17.1621 8.98516 17.2021C9.04516 17.2121 9.10516 17.2321 9.16516 17.2621C9.22516 17.2821 9.28516 17.3121 9.34516 17.3521L9.49516 17.4721C9.67516 17.6621 9.78516 17.9221 9.78516 18.1821C9.78516 18.4421 9.67516 18.7021 9.49516 18.8921ZM9.49516 15.3921C9.30516 15.5721 9.04516 15.6821 8.78516 15.6821C8.52516 15.6821 8.26516 15.5721 8.07516 15.3921C7.89516 15.2021 7.78516 14.9421 7.78516 14.6821C7.78516 14.4221 7.89516 14.1621 8.07516 13.9721C8.35516 13.6921 8.79516 13.6021 9.16516 13.7621C9.29516 13.8121 9.40516 13.8821 9.49516 13.9721C9.67516 14.1621 9.78516 14.4221 9.78516 14.6821C9.78516 14.9421 9.67516 15.2021 9.49516 15.3921ZM12.9952 18.8921C12.8052 19.0721 12.5452 19.1821 12.2852 19.1821C12.0252 19.1821 11.7652 19.0721 11.5752 18.8921C11.3952 18.7021 11.2852 18.4421 11.2852 18.1821C11.2852 17.9221 11.3952 17.6621 11.5752 17.4721C11.9452 17.1021 12.6252 17.1021 12.9952 17.4721C13.1752 17.6621 13.2852 17.9221 13.2852 18.1821C13.2852 18.4421 13.1752 18.7021 12.9952 18.8921ZM12.9952 15.3921L12.8452 15.5121C12.7852 15.5521 12.7252 15.5821 12.6652 15.6021C12.6052 15.6321 12.5452 15.6521 12.4852 15.6621C12.4152 15.6721 12.3552 15.6821 12.2852 15.6821C12.0252 15.6821 11.7652 15.5721 11.5752 15.3921C11.3952 15.2021 11.2852 14.9421 11.2852 14.6821C11.2852 14.4221 11.3952 14.1621 11.5752 13.9721C11.6652 13.8821 11.7752 13.8121 11.9052 13.7621C12.2752 13.6021 12.7152 13.6921 12.9952 13.9721C13.1752 14.1621 13.2852 14.4221 13.2852 14.6821C13.2852 14.9421 13.1752 15.2021 12.9952 15.3921ZM16.4952 18.8921C16.3052 19.0721 16.0452 19.1821 15.7852 19.1821C15.5252 19.1821 15.2652 19.0721 15.0752 18.8921C14.8952 18.7021 14.7852 18.4421 14.7852 18.1821C14.7852 17.9221 14.8952 17.6621 15.0752 17.4721C15.4452 17.1021 16.1252 17.1021 16.4952 17.4721C16.6752 17.6621 16.7852 17.9221 16.7852 18.1821C16.7852 18.4421 16.6752 18.7021 16.4952 18.8921ZM16.4952 15.3921L16.3452 15.5121C16.2852 15.5521 16.2252 15.5821 16.1652 15.6021C16.1052 15.6321 16.0452 15.6521 15.9852 15.6621C15.9152 15.6721 15.8452 15.6821 15.7852 15.6821C15.5252 15.6821 15.2652 15.5721 15.0752 15.3921C14.8952 15.2021 14.7852 14.9421 14.7852 14.6821C14.7852 14.4221 14.8952 14.1621 15.0752 13.9721C15.1752 13.8821 15.2752 13.8121 15.4052 13.7621C15.5852 13.6821 15.7852 13.6621 15.9852 13.7021C16.0452 13.7121 16.1052 13.7321 16.1652 13.7621C16.2252 13.7821 16.2852 13.8121 16.3452 13.8521L16.4952 13.9721C16.6752 14.1621 16.7852 14.4221 16.7852 14.6821C16.7852 14.9421 16.6752 15.2021 16.4952 15.3921Z" fill="white"/>
</svg>