<svg width="20" height="20" viewBox="0 0 25 25" fill="none" xmlns="http://www.w3.org/2000/svg">
<path d="M22.8882 22.9512H2.88818C2.47818 22.9512 2.13818 22.6112 2.13818 22.2012C2.13818 21.7912 2.47818 21.4512 2.88818 21.4512H22.8882C23.2982 21.4512 23.6382 21.7912 23.6382 22.2012C23.6382 22.6112 23.2982 22.9512 22.8882 22.9512Z" fill="#A3AED0"/>
<path d="M15.1382 22.9512H10.6382C10.2282 22.9512 9.88818 22.6112 9.88818 22.2012V4.20117C9.88818 2.48117 10.8382 1.45117 12.4382 1.45117H13.3382C14.9382 1.45117 15.8882 2.48117 15.8882 4.20117V22.2012C15.8882 22.6112 15.5482 22.9512 15.1382 22.9512ZM11.3882 21.4512H14.3882V4.20117C14.3882 3.05117 13.8482 2.95117 13.3382 2.95117H12.4382C11.9282 2.95117 11.3882 3.05117 11.3882 4.20117V21.4512ZM7.88818 22.9512H3.88818C3.47818 22.9512 3.13818 22.6112 3.13818 22.2012V10.2012C3.13818 8.48117 4.01818 7.45117 5.48818 7.45117H6.28818C7.75818 7.45117 8.63818 8.48117 8.63818 10.2012V22.2012C8.63818 22.6112 8.29818 22.9512 7.88818 22.9512ZM4.63818 21.4512H7.13818V10.2012C7.13818 8.95117 6.58818 8.95117 6.28818 8.95117H5.48818C5.18818 8.95117 4.63818 8.95117 4.63818 10.2012V21.4512ZM21.8882 22.9512H17.8882C17.4782 22.9512 17.1382 22.6112 17.1382 22.2012V15.2012C17.1382 13.4812 18.0182 12.4512 19.4882 12.4512H20.2882C21.7582 12.4512 22.6382 13.4812 22.6382 15.2012V22.2012C22.6382 22.6112 22.2982 22.9512 21.8882 22.9512ZM18.6382 21.4512H21.1382V15.2012C21.1382 13.9512 20.5882 13.9512 20.2882 13.9512H19.4882C19.1882 13.9512 18.6382 13.9512 18.6382 15.2012V21.4512Z" fill="#A3AED0"/>
</svg>
