<svg width="20" height="20" viewBox="0 0 24 25" fill="none" xmlns="http://www.w3.org/2000/svg">
<path d="M22 22.3047H2C1.59 22.3047 1.25 21.9647 1.25 21.5547C1.25 21.1447 1.59 20.8047 2 20.8047H22C22.41 20.8047 22.75 21.1447 22.75 21.5547C22.75 21.9647 22.41 22.3047 22 22.3047Z" fill="#4675F1"/>
<path d="M9.75 4.30469V22.3047H14.25V4.30469C14.25 3.20469 13.8 2.30469 12.45 2.30469H11.55C10.2 2.30469 9.75 3.20469 9.75 4.30469ZM3 10.3047V22.3047H7V10.3047C7 9.20469 6.6 8.30469 5.4 8.30469H4.6C3.4 8.30469 3 9.20469 3 10.3047ZM17 15.3047V22.3047H21V15.3047C21 14.2047 20.6 13.3047 19.4 13.3047H18.6C17.4 13.3047 17 14.2047 17 15.3047Z" fill="#4675F1"/>
</svg>
