<svg xmlns="http://www.w3.org/2000/svg" width="25" height="25" viewBox="0 0 25 25" fill="none">
  <path d="M22.8154 23.0571H2.81543C2.40543 23.0571 2.06543 22.7171 2.06543 22.3071C2.06543 21.8971 2.40543 21.5571 2.81543 21.5571H22.8154C23.2254 21.5571 23.5654 21.8971 23.5654 22.3071C23.5654 22.7171 23.2254 23.0571 22.8154 23.0571Z" fill="#819FD8"/>
  <path d="M15.0654 23.0571H10.5654C10.1554 23.0571 9.81543 22.7171 9.81543 22.3071V4.30713C9.81543 2.58713 10.7654 1.55713 12.3654 1.55713H13.2654C14.8654 1.55713 15.8154 2.58713 15.8154 4.30713V22.3071C15.8154 22.7171 15.4754 23.0571 15.0654 23.0571ZM11.3154 21.5571H14.3154V4.30713C14.3154 3.15713 13.7754 3.05713 13.2654 3.05713H12.3654C11.8554 3.05713 11.3154 3.15713 11.3154 4.30713V21.5571ZM7.81543 23.0571H3.81543C3.40543 23.0571 3.06543 22.7171 3.06543 22.3071V10.3071C3.06543 8.58713 3.94543 7.55713 5.41543 7.55713H6.21543C7.68543 7.55713 8.56543 8.58713 8.56543 10.3071V22.3071C8.56543 22.7171 8.22543 23.0571 7.81543 23.0571ZM4.56543 21.5571H7.06543V10.3071C7.06543 9.05713 6.51543 9.05713 6.21543 9.05713H5.41543C5.11543 9.05713 4.56543 9.05713 4.56543 10.3071V21.5571ZM21.8154 23.0571H17.8154C17.4054 23.0571 17.0654 22.7171 17.0654 22.3071V15.3071C17.0654 13.5871 17.9454 12.5571 19.4154 12.5571H20.2154C21.6854 12.5571 22.5654 13.5871 22.5654 15.3071V22.3071C22.5654 22.7171 22.2254 23.0571 21.8154 23.0571ZM18.5654 21.5571H21.0654V15.3071C21.0654 14.0571 20.5154 14.0571 20.2154 14.0571H19.4154C19.1154 14.0571 18.5654 14.0571 18.5654 15.3071V21.5571Z" fill="#819FD8"/>
</svg>