<svg width="21" height="21" viewBox="0 0 21 21" fill="none" xmlns="http://www.w3.org/2000/svg">
<path d="M7.25146 5.42057C6.9098 5.42057 6.62646 5.13724 6.62646 4.79557V2.29557C6.62646 1.9539 6.9098 1.67057 7.25146 1.67057C7.59313 1.67057 7.87646 1.9539 7.87646 2.29557V4.79557C7.87646 5.13724 7.59313 5.42057 7.25146 5.42057ZM13.9181 5.42057C13.5765 5.42057 13.2931 5.13724 13.2931 4.79557V2.29557C13.2931 1.9539 13.5765 1.67057 13.9181 1.67057C14.2598 1.67057 14.5431 1.9539 14.5431 2.29557V4.79557C14.5431 5.13724 14.2598 5.42057 13.9181 5.42057Z" fill="#111111"/>
<path d="M13.085 19.5872H8.08496C3.40163 19.5872 2.45996 17.3789 2.45996 13.8122V8.67057C2.45996 4.72057 3.79329 3.11224 7.21829 2.92057H13.9516C17.3766 3.11224 18.71 4.72057 18.71 8.67057V13.8122C18.71 17.3789 17.7683 19.5872 13.085 19.5872ZM7.25163 4.17057C4.91829 4.3039 3.70996 5.03724 3.70996 8.67057V13.8122C3.70996 17.0039 4.31829 18.3372 8.08496 18.3372H13.085C16.8516 18.3372 17.46 17.0039 17.46 13.8122V8.67057C17.46 5.04557 16.26 4.3039 13.9016 4.17057H7.25163Z" fill="#111111"/>
<path d="M17.8768 15.9222H3.29346C2.95179 15.9222 2.66846 15.6389 2.66846 15.2972C2.66846 14.9556 2.95179 14.6722 3.29346 14.6722H17.8768C18.2185 14.6722 18.5018 14.9556 18.5018 15.2972C18.5018 15.6389 18.2185 15.9222 17.8768 15.9222ZM10.5851 7.50391C9.56012 7.50391 8.69346 8.06224 8.69346 9.14557C8.69346 9.66224 8.93512 10.0539 9.30179 10.3039C8.79346 10.6039 8.50179 11.0872 8.50179 11.6539C8.50179 12.6872 9.29346 13.3289 10.5851 13.3289C11.8685 13.3289 12.6685 12.6872 12.6685 11.6539C12.6685 11.0872 12.3768 10.5956 11.8601 10.3039C12.2351 10.0456 12.4685 9.66224 12.4685 9.14557C12.4685 8.06224 11.6101 7.50391 10.5851 7.50391ZM10.5851 9.87057C10.1518 9.87057 9.83512 9.61224 9.83512 9.20391C9.83512 8.78724 10.1518 8.54557 10.5851 8.54557C11.0185 8.54557 11.3351 8.78724 11.3351 9.20391C11.3351 9.61224 11.0185 9.87057 10.5851 9.87057ZM10.5851 12.2956C10.0351 12.2956 9.63512 12.0206 9.63512 11.5206C9.63512 11.0206 10.0351 10.7539 10.5851 10.7539C11.1351 10.7539 11.5351 11.0289 11.5351 11.5206C11.5351 12.0206 11.1351 12.2956 10.5851 12.2956Z" fill="#111111"/>
</svg>
