<svg width="20" height="21" viewBox="0 0 20 21" fill="none" xmlns="http://www.w3.org/2000/svg">
<path d="M3.33334 15.3594V9.52604M6.66668 15.3594V9.52604M10 15.3594V9.52604M13.3333 15.3594V9.52604M16.6667 15.3594V9.52604M0.833344 18.6927H19.1667M10.3083 2.15104L17.8083 5.15104C18.1 5.26771 18.3333 5.61771 18.3333 5.92604V8.69271C18.3333 9.15104 17.9583 9.52604 17.5 9.52604H2.50001C2.04168 9.52604 1.66668 9.15104 1.66668 8.69271V5.92604C1.66668 5.61771 1.90001 5.26771 2.19168 5.15104L9.69168 2.15104C9.85834 2.08438 10.1417 2.08438 10.3083 2.15104ZM18.3333 18.6927H1.66668V16.1927C1.66668 15.7344 2.04168 15.3594 2.50001 15.3594H17.5C17.9583 15.3594 18.3333 15.7344 18.3333 16.1927V18.6927Z" stroke="#111111" stroke-width="1.25" stroke-miterlimit="10" stroke-linecap="round" stroke-linejoin="round"/>
<path d="M10 7.44272C10.1642 7.44272 10.3267 7.41039 10.4784 7.34757C10.63 7.28475 10.7678 7.19268 10.8839 7.0766C11 6.96053 11.092 6.82273 11.1548 6.67107C11.2177 6.51942 11.25 6.35687 11.25 6.19272C11.25 6.02857 11.2177 5.86602 11.1548 5.71436C11.092 5.56271 11 5.42491 10.8839 5.30883C10.7678 5.19276 10.63 5.10069 10.4784 5.03787C10.3267 4.97505 10.1642 4.94272 10 4.94272C9.66848 4.94272 9.35054 5.07441 9.11612 5.30883C8.8817 5.54326 8.75 5.8612 8.75 6.19272C8.75 6.52424 8.8817 6.84218 9.11612 7.0766C9.35054 7.31102 9.66848 7.44272 10 7.44272Z" stroke="#111111" stroke-width="1.25" stroke-miterlimit="10" stroke-linecap="round" stroke-linejoin="round"/>
</svg>
