<svg width="21" height="20" viewBox="0 0 21 20" fill="none" xmlns="http://www.w3.org/2000/svg">
<path d="M1.72485 18.3333H18.3915M14.2249 1.66666H5.89152C3.39152 1.66666 2.55819 3.15832 2.55819 4.99999V18.3333H17.5582V4.99999C17.5582 3.15832 16.7249 1.66666 14.2249 1.66666Z" stroke="#111111" stroke-width="1.25" stroke-miterlimit="10" stroke-linecap="round" stroke-linejoin="round"/>
<path d="M10.0581 5V9.16667M7.9748 7.08333H12.1415M11.7748 12.5H8.33314C7.90814 12.5 7.5498 12.85 7.5498 13.2833V18.3333H12.5498V13.2833C12.5516 13.1807 12.5328 13.0787 12.4946 12.9834C12.4564 12.8881 12.3995 12.8014 12.3273 12.7284C12.2551 12.6554 12.169 12.5976 12.0741 12.5584C11.9792 12.5192 11.8775 12.4993 11.7748 12.5Z" stroke="#111111" stroke-width="1.25" stroke-miterlimit="10" stroke-linecap="round" stroke-linejoin="round"/>
</svg>
