<svg width="25" height="25" viewBox="0 0 25 25" fill="none" xmlns="http://www.w3.org/2000/svg">
<path d="M12.1282 0.359375C5.50076 0.359375 0.128174 5.73196 0.128174 12.3594C0.128174 18.9868 5.50076 24.3594 12.1282 24.3594C18.7556 24.3594 24.1282 18.9868 24.1282 12.3594C24.1282 5.73196 18.7556 0.359373 12.1282 0.359375ZM12.1282 22.6451C6.44753 22.6451 1.84246 18.04 1.84246 12.3594C1.84246 6.67873 6.44753 2.07366 12.1282 2.07366C17.8088 2.07366 22.4139 6.67873 22.4139 12.3594C22.4139 18.04 17.8088 22.6451 12.1282 22.6451Z" fill="#EF0000"/>
<path d="M16.9226 7.56292C16.7884 7.42765 16.6058 7.35156 16.4152 7.35156C16.2247 7.35156 16.0421 7.42765 15.9079 7.56292L12.1281 11.3499L8.34829 7.56292C8.06811 7.28274 7.61385 7.28274 7.33367 7.56292C7.05349 7.8431 7.05349 8.29736 7.33367 8.57754L11.1206 12.3574L7.33367 16.1372C7.1984 16.2713 7.12231 16.454 7.12231 16.6445C7.12231 16.835 7.1984 17.0176 7.33367 17.1518C7.46783 17.2871 7.65046 17.3632 7.84098 17.3632C8.0315 17.3632 8.21413 17.2871 8.34829 17.1518L12.1281 13.3648L15.9079 17.1518C16.0421 17.2871 16.2247 17.3632 16.4152 17.3632C16.6058 17.3632 16.7884 17.2871 16.9226 17.1518C17.0578 17.0176 17.1339 16.835 17.1339 16.6445C17.1339 16.454 17.0578 16.2713 16.9226 16.1372L13.1356 12.3574L16.9226 8.57754C17.0578 8.44338 17.1339 8.26075 17.1339 8.07023C17.1339 7.87971 17.0578 7.69708 16.9226 7.56292Z" fill="#EF0000"/>
</svg>
