<svg width="81" height="80" viewBox="0 0 81 80" fill="none" xmlns="http://www.w3.org/2000/svg">
<circle cx="40.4805" cy="40" r="40" fill="#21C896"/>
<path d="M52.8475 39.5833H47.1475C46.4641 39.5833 45.8975 39.0166 45.8975 38.3333V26.6833C45.8975 25.4499 46.3808 24.2999 47.2475 23.4333C48.1141 22.5666 49.2641 22.0833 50.4975 22.0833H50.5141C52.5975 22.0999 54.5641 22.9166 56.0641 24.3999C57.5641 25.9166 58.3808 27.9166 58.3808 29.9999V34.0333C58.3975 37.3499 56.1641 39.5833 52.8475 39.5833ZM48.3975 37.0833H52.8475C54.7808 37.0833 55.8975 35.9666 55.8975 34.0333V29.9999C55.8975 28.5666 55.3308 27.1999 54.3141 26.1666C53.2975 25.1666 51.9475 24.5999 50.5141 24.5833H50.4975C49.9475 24.5833 49.4141 24.7999 49.0141 25.1999C48.6141 25.5999 48.3975 26.1166 48.3975 26.6833V37.0833Z" fill="white"/>
<path d="M35.4771 58.8833C34.6938 58.8833 33.9605 58.5833 33.4105 58.0166L30.6438 55.2332C30.5727 55.1604 30.4769 55.1166 30.3752 55.1104C30.2736 55.1043 30.1733 55.1362 30.0938 55.1999L27.2438 57.3333C26.3605 57.9999 25.1938 58.1166 24.1938 57.6166C23.1938 57.1166 22.5771 56.1166 22.5771 54.9999V29.9999C22.5771 24.9666 25.4605 22.0833 30.4938 22.0833H50.4938C51.1771 22.0833 51.7438 22.6499 51.7438 23.3333C51.7438 24.0166 51.1771 24.5833 50.4938 24.5833C49.3438 24.5833 48.4105 25.5166 48.4105 26.6666V54.9999C48.4105 56.1166 47.7938 57.1166 46.7938 57.6166C45.8105 58.1166 44.6271 57.9999 43.7438 57.3333L40.8938 55.1999C40.816 55.1398 40.719 55.11 40.6209 55.1161C40.5227 55.1223 40.4302 55.1639 40.3605 55.2332L37.5605 58.0332C36.9938 58.5833 36.2605 58.8833 35.4771 58.8833ZM30.3271 52.6166C31.0938 52.6166 31.8438 52.8999 32.4105 53.4833L35.1771 56.2666C35.2771 56.3666 35.4105 56.3833 35.4771 56.3833C35.5438 56.3833 35.6771 56.3666 35.7771 56.2666L38.5771 53.4666C39.6105 52.4333 41.2438 52.3333 42.3938 53.2166L45.2271 55.3333C45.4105 55.4666 45.5771 55.4166 45.6605 55.3666C45.7438 55.3166 45.8938 55.2166 45.8938 54.9999V26.6666C45.8938 25.9166 46.0771 25.1999 46.3938 24.5833H30.4771C26.7771 24.5833 25.0605 26.2999 25.0605 29.9999V54.9999C25.0605 55.2332 25.2105 55.3333 25.2938 55.3833C25.3938 55.4333 25.5605 55.4666 25.7271 55.3333L28.5771 53.1999C29.0938 52.8166 29.7105 52.6166 30.3271 52.6166Z" fill="white"/>
<path d="M37.2548 44.5945H34.1875C32.1834 44.5945 30.5581 42.9081 30.5581 40.8306C30.5581 40.3296 30.9736 39.9141 31.4746 39.9141C31.9757 39.9141 32.3912 40.3296 32.3912 40.8306C32.3912 41.8938 33.1977 42.7614 34.1875 42.7614H37.2548C38.0492 42.7614 38.7091 42.0526 38.7091 41.1972C38.7091 40.134 38.3302 39.9263 37.707 39.7063L32.7822 37.9711C31.829 37.6411 30.5459 36.9323 30.5459 34.7449C30.5459 32.863 32.0246 31.3477 33.8332 31.3477H36.9005C38.9046 31.3477 40.5299 33.0341 40.5299 35.1115C40.5299 35.6125 40.1144 36.028 39.6134 36.028C39.1123 36.028 38.6968 35.6125 38.6968 35.1115C38.6968 34.0483 37.8903 33.1807 36.9005 33.1807H33.8332C33.0388 33.1807 32.3789 33.8895 32.3789 34.7449C32.3789 35.8081 32.7578 36.0158 33.381 36.2358L38.3058 37.9711C39.259 38.301 40.5421 39.0098 40.5421 41.1972C40.5299 43.0669 39.0634 44.5945 37.2548 44.5945Z" fill="white"/>
<path d="M35.5435 46.224C35.0424 46.224 34.627 45.8085 34.627 45.3074V30.6431C34.627 30.1421 35.0424 29.7266 35.5435 29.7266C36.0445 29.7266 36.46 30.1421 36.46 30.6431V45.3074C36.46 45.8085 36.0445 46.224 35.5435 46.224Z" fill="white"/>
</svg>
