<svg width="25" height="25" viewBox="0 0 25 25" fill="none" xmlns="http://www.w3.org/2000/svg">
<path d="M11.6592 2.55273H9.65918C4.65918 2.55273 2.65918 4.55273 2.65918 9.55273V15.5527C2.65918 20.5527 4.65918 22.5527 9.65918 22.5527H15.6592C20.6592 22.5527 22.6592 20.5527 22.6592 15.5527V13.5527" stroke="#34528A" stroke-width="1.5" stroke-linecap="round" stroke-linejoin="round"/>
<path d="M16.6992 3.57201L8.81918 11.452C8.51918 11.752 8.21918 12.342 8.15918 12.772L7.72918 15.782C7.56918 16.872 8.33918 17.632 9.42918 17.482L12.4392 17.052C12.8592 16.992 13.4492 16.692 13.7592 16.392L21.6392 8.51201C22.9992 7.15201 23.6392 5.57201 21.6392 3.57201C19.6392 1.57201 18.0592 2.21201 16.6992 3.57201Z" stroke="#34528A" stroke-width="1.5" stroke-miterlimit="10" stroke-linecap="round" stroke-linejoin="round"/>
<path d="M15.5692 4.70312C15.9007 5.88059 16.5291 6.95319 17.3941 7.81817C18.2591 8.68315 19.3317 9.31153 20.5092 9.64313" stroke="#34528A" stroke-width="1.5" stroke-miterlimit="10" stroke-linecap="round" stroke-linejoin="round"/>
</svg>
