<svg width="21" height="21" viewBox="0 0 21 21" fill="none" xmlns="http://www.w3.org/2000/svg">
<path d="M10.5848 19.0289C10.3348 19.0289 10.0848 18.9706 9.87646 18.8539C8.31813 18.0039 5.57646 17.1039 3.8598 16.8789L3.61813 16.8456C2.52646 16.7122 1.62646 15.6872 1.62646 14.5789V4.51223C1.62646 3.85389 1.8848 3.25389 2.3598 2.82056C2.8348 2.38723 3.45146 2.17889 4.10146 2.23723C5.9348 2.37889 8.70146 3.29556 10.2681 4.27889L10.4681 4.39556C10.5265 4.42889 10.6515 4.42889 10.7015 4.40389L10.8348 4.32056C12.4015 3.33723 15.1681 2.40389 17.0098 2.24556H17.1098C17.7181 2.18723 18.3431 2.40389 18.8098 2.83723C19.2848 3.27056 19.5431 3.87056 19.5431 4.52889V14.5872C19.5431 15.7039 18.6431 16.7206 17.5431 16.8539L17.2681 16.8872C15.5515 17.1122 12.8015 18.0206 11.2765 18.8622C11.0765 18.9789 10.8348 19.0289 10.5848 19.0289ZM3.90146 3.47889C3.6348 3.47889 3.39313 3.57056 3.20146 3.74556C2.99313 3.93723 2.87646 4.21223 2.87646 4.51223V14.5789C2.87646 15.0706 3.30146 15.5456 3.77646 15.6122L4.02646 15.6456C5.90146 15.8956 8.77646 16.8372 10.4431 17.7456C10.5181 17.7789 10.6265 17.7872 10.6681 17.7706C12.3348 16.8456 15.2265 15.8956 17.1098 15.6456L17.3931 15.6122C17.8681 15.5539 18.2931 15.0706 18.2931 14.5789V4.52056C18.2931 4.21223 18.1765 3.94556 17.9681 3.74556C17.7515 3.55389 17.4765 3.46223 17.1681 3.47889H17.0681C15.4765 3.62056 12.9098 4.47889 11.5098 5.35389L11.3765 5.44556C10.9181 5.72889 10.2681 5.72889 9.82646 5.45389L9.62646 5.33723C8.20147 4.46223 5.6348 3.61223 4.00146 3.47889H3.90146Z" fill="black"/>
<path d="M10.5851 18.3272C10.2435 18.3272 9.96012 18.0439 9.96012 17.7022V5.20224C9.96012 4.86057 10.2435 4.57724 10.5851 4.57724C10.9268 4.57724 11.2101 4.86057 11.2101 5.20224V17.7022C11.2101 18.0522 10.9268 18.3272 10.5851 18.3272ZM7.04346 8.32724H5.16846C4.82679 8.32724 4.54346 8.04391 4.54346 7.70224C4.54346 7.36057 4.82679 7.07724 5.16846 7.07724H7.04346C7.38512 7.07724 7.66846 7.36057 7.66846 7.70224C7.66846 8.04391 7.38512 8.32724 7.04346 8.32724ZM7.66846 10.8272H5.16846C4.82679 10.8272 4.54346 10.5439 4.54346 10.2022C4.54346 9.86057 4.82679 9.57724 5.16846 9.57724H7.66846C8.01012 9.57724 8.29346 9.86057 8.29346 10.2022C8.29346 10.5439 8.01012 10.8272 7.66846 10.8272Z" fill="black"/>
</svg>
