<svg width="18" height="13" viewBox="0 0 18 13" fill="none" xmlns="http://www.w3.org/2000/svg">
<path d="M1.53906 0.916718H15.5508C16.3747 0.916718 17.0449 1.58699 17.0449 2.41086V11.0696C17.0449 11.8935 16.3747 12.5638 15.5508 12.5638H1.53906C0.715193 12.5638 0.0449219 11.8935 0.0449219 11.0696V2.41086C0.0449219 1.58699 0.715193 0.916718 1.53906 0.916718ZM1.73406 1.91281L1.93348 2.07886L7.95211 7.09057C8.29563 7.37659 8.79428 7.37659 9.13773 7.09057L15.1564 2.07886L15.3558 1.91281H1.73406ZM16.0488 2.63192L11.145 6.71534L16.0488 9.97898V2.63192ZM1.53906 11.5677H15.5508C15.7914 11.5677 15.9927 11.3961 16.0388 11.1689L10.3463 7.38037L9.7751 7.85604C9.4187 8.15281 8.98178 8.30119 8.54489 8.30119C8.108 8.30119 7.67111 8.15281 7.31468 7.85604L6.74345 7.38037L1.05098 11.1688C1.09713 11.3961 1.29841 11.5677 1.53906 11.5677ZM1.04102 9.97898L5.94485 6.71538L1.04102 2.63192V9.97898Z" fill="#000842"/>
</svg>
