<svg width="20" height="21" viewBox="0 0 20 21" fill="none" xmlns="http://www.w3.org/2000/svg">
<path d="M14.1665 18.3542H5.83317C2.7915 18.3542 1.0415 16.6042 1.0415 13.5625V7.72917C1.0415 4.6875 2.7915 2.9375 5.83317 2.9375H14.1665C17.2082 2.9375 18.9582 4.6875 18.9582 7.72917V13.5625C18.9582 16.6042 17.2082 18.3542 14.1665 18.3542ZM5.83317 4.1875C3.44984 4.1875 2.2915 5.34583 2.2915 7.72917V13.5625C2.2915 15.9458 3.44984 17.1042 5.83317 17.1042H14.1665C16.5498 17.1042 17.7082 15.9458 17.7082 13.5625V7.72917C17.7082 5.34583 16.5498 4.1875 14.1665 4.1875H5.83317Z" fill="#111111"/>
<path d="M9.99955 11.3666C9.29955 11.3666 8.59122 11.1499 8.04955 10.7082L5.44122 8.62491C5.31993 8.51959 5.24398 8.37152 5.2292 8.21156C5.21443 8.05161 5.26198 7.89213 5.36194 7.76638C5.46189 7.64063 5.60653 7.55833 5.76569 7.53663C5.92486 7.51493 6.08625 7.55551 6.21622 7.64991L8.82455 9.73324C9.45789 10.2416 10.5329 10.2416 11.1662 9.73324L13.7746 7.64991C14.0412 7.43324 14.4412 7.47491 14.6496 7.74991C14.8662 8.01658 14.8246 8.41658 14.5496 8.62491L11.9412 10.7082C11.4079 11.1499 10.6996 11.3666 9.99955 11.3666Z" fill="#111111"/>
</svg>
