<svg width="21" height="21" viewBox="0 0 21 21" fill="none" xmlns="http://www.w3.org/2000/svg">
<path d="M10.5848 14.5872C10.2515 14.5872 9.91814 14.5622 9.60147 14.5039C7.8348 14.2456 6.22647 13.2289 5.2098 11.7206C4.50204 10.6565 4.1251 9.40681 4.12647 8.1289C4.12647 4.57056 7.02647 1.67056 10.5848 1.67056C14.1431 1.67056 17.0431 4.57056 17.0431 8.1289C17.0431 9.41223 16.6681 10.6539 15.9598 11.7206C15.4568 12.4661 14.8046 13.0992 14.0443 13.5797C13.2841 14.0602 12.4324 14.3778 11.5431 14.5122C11.2515 14.5622 10.9181 14.5872 10.5848 14.5872ZM10.5848 2.92056C7.7098 2.92056 5.37647 5.2539 5.37647 8.1289C5.37647 9.17056 5.67647 10.1706 6.24314 11.0206C6.64707 11.62 7.17126 12.1288 7.78241 12.5147C8.39357 12.9006 9.07831 13.1552 9.79314 13.2622C10.3265 13.3539 10.8515 13.3539 11.3431 13.2622C12.8015 13.0539 14.0931 12.2289 14.9181 11.0122C15.487 10.1554 15.7886 9.149 15.7848 8.12056C15.7931 5.2539 13.4598 2.92056 10.5848 2.92056Z" fill="#111111"/>
<path d="M5.97656 19.4522C5.85989 19.4522 5.75156 19.4356 5.63489 19.4106C5.09322 19.2856 4.67656 18.8689 4.55156 18.3272L4.25989 17.1022C4.25034 17.064 4.23055 17.029 4.20266 17.0011C4.17477 16.9732 4.13982 16.9535 4.10156 16.9439L2.72656 16.6189C2.47413 16.5602 2.24204 16.435 2.05445 16.2562C1.86686 16.0774 1.73061 15.8516 1.65989 15.6022C1.51822 15.0939 1.65989 14.5439 2.03489 14.1689L5.28489 10.9189C5.41822 10.7856 5.60156 10.7189 5.78489 10.7356C5.96822 10.7522 6.13489 10.8522 6.24322 11.0106C7.06822 12.2272 8.35989 13.0522 9.80156 13.2606C10.3349 13.3522 10.8599 13.3522 11.3516 13.2606C12.8099 13.0522 14.1016 12.2272 14.9266 11.0106C15.0266 10.8522 15.2016 10.7522 15.3849 10.7356C15.5682 10.7189 15.7516 10.7856 15.8849 10.9189L19.1349 14.1689C19.5099 14.5439 19.6516 15.0939 19.5099 15.6022C19.4392 15.8516 19.3029 16.0774 19.1153 16.2562C18.9277 16.435 18.6956 16.5602 18.4432 16.6189L17.0682 16.9439C16.9932 16.9606 16.9349 17.0189 16.9099 17.1022L16.6182 18.3272C16.4932 18.8689 16.0766 19.2856 15.5349 19.4106C14.9932 19.5439 14.4349 19.3522 14.0849 18.9272L10.5849 14.9022L7.08489 18.9356C6.80156 19.2689 6.40156 19.4522 5.97656 19.4522ZM5.65989 12.3189L2.91822 15.0606C2.84322 15.1356 2.85156 15.2189 2.86822 15.2689C2.87656 15.3106 2.91822 15.3939 3.01822 15.4106L4.39322 15.7356C4.93489 15.8606 5.35156 16.2772 5.47656 16.8189L5.76822 18.0439C5.79322 18.1522 5.87656 18.1856 5.92656 18.2022C5.97656 18.2106 6.05989 18.2189 6.13489 18.1356L9.32656 14.4606C7.8983 14.1793 6.60654 13.4248 5.65989 12.3189ZM11.8432 14.4522L15.0349 18.1189C15.1099 18.2106 15.2016 18.2106 15.2516 18.1939C15.3016 18.1856 15.3766 18.1439 15.4099 18.0356L15.7016 16.8106C15.8266 16.2689 16.2432 15.8522 16.7849 15.7272L18.1599 15.4022C18.2599 15.3772 18.3016 15.3022 18.3099 15.2606C18.3266 15.2189 18.3349 15.1272 18.2599 15.0522L15.5182 12.3106C14.5684 13.4168 13.2739 14.1711 11.8432 14.4522Z" fill="#111111"/>
<path d="M12.1607 11.3692C11.9441 11.3692 11.6857 11.3108 11.3774 11.1275L10.5857 10.6525L9.79406 11.1192C9.06906 11.5525 8.59406 11.3025 8.41906 11.1775C8.24406 11.0525 7.86906 10.6775 8.06073 9.85248L8.26073 8.99415L7.59406 8.37748C7.2274 8.01082 7.09406 7.56915 7.21906 7.16915C7.34406 6.76915 7.71073 6.48582 8.2274 6.40248L9.11906 6.25248L9.54406 5.31915C9.78573 4.84415 10.1607 4.57748 10.5857 4.57748C11.0107 4.57748 11.3941 4.85248 11.6274 5.32748L12.1191 6.31082L12.9441 6.41082C13.4524 6.49415 13.8191 6.77748 13.9524 7.17748C14.0774 7.57748 13.9441 8.01915 13.5774 8.38582L12.8857 9.07748L13.1024 9.85248C13.2941 10.6775 12.9191 11.0525 12.7441 11.1775C12.6524 11.2525 12.4524 11.3692 12.1607 11.3692ZM8.59406 7.61915L9.16906 8.19415C9.43573 8.46082 9.56906 8.91082 9.48573 9.27748L9.3274 9.94415L9.99406 9.55248C10.3524 9.34415 10.8357 9.34415 11.1857 9.55248L11.8524 9.94415L11.7024 9.27748C11.6191 8.90248 11.7441 8.46082 12.0107 8.19415L12.5857 7.61915L11.8607 7.49415C11.5107 7.43582 11.1607 7.17748 11.0024 6.86082L10.5857 6.04415L10.1691 6.87748C10.0191 7.18582 9.66906 7.45248 9.31906 7.51082L8.59406 7.61915Z" fill="#111111"/>
</svg>
