<svg width="17" height="17" viewBox="0 0 17 17" fill="none" xmlns="http://www.w3.org/2000/svg">
<path d="M8.04572 11.8247C6.45239 11.8247 5.15906 10.5314 5.15906 8.93804C5.15906 7.34471 6.45239 6.05138 8.04572 6.05138C9.63906 6.05138 10.9324 7.34471 10.9324 8.93804C10.9324 10.5314 9.63906 11.8247 8.04572 11.8247ZM8.04572 7.05138C7.00572 7.05138 6.15906 7.89804 6.15906 8.93804C6.15906 9.97804 7.00572 10.8247 8.04572 10.8247C9.08572 10.8247 9.93239 9.97804 9.93239 8.93804C9.93239 7.89804 9.08572 7.05138 8.04572 7.05138Z" fill="#ADADAD"/>
<path d="M8.04306 14.95C5.53639 14.95 3.16973 13.4834 1.54306 10.9367C0.836395 9.8367 0.836395 8.04337 1.54306 6.9367C3.17639 4.39004 5.54306 2.92337 8.04306 2.92337C10.5431 2.92337 12.9097 4.39004 14.5364 6.9367C15.2431 8.0367 15.2431 9.83004 14.5364 10.9367C12.9097 13.4834 10.5431 14.95 8.04306 14.95ZM8.04306 3.92337C5.88973 3.92337 3.82973 5.2167 2.38973 7.4767C1.88973 8.2567 1.88973 9.6167 2.38973 10.3967C3.82973 12.6567 5.88973 13.95 8.04306 13.95C10.1964 13.95 12.2564 12.6567 13.6964 10.3967C14.1964 9.6167 14.1964 8.2567 13.6964 7.4767C12.2564 5.2167 10.1964 3.92337 8.04306 3.92337Z" fill="#ADADAD"/>
</svg>
