<svg width="21" height="21" viewBox="0 0 21 21" fill="none" xmlns="http://www.w3.org/2000/svg">
<path d="M10.585 19.5887C10.0016 19.5887 9.40996 19.3637 8.96829 18.922L7.54329 17.5137C7.19329 17.1637 6.70996 16.972 6.21829 16.972H5.58496C3.85996 16.972 2.45996 15.5803 2.45996 13.872V4.78034C2.45996 3.072 3.85996 1.68034 5.58496 1.68034H15.585C17.31 1.68034 18.71 3.072 18.71 4.78034V13.872C18.71 15.5803 17.31 16.972 15.585 16.972H14.9516C14.4566 16.9747 13.9818 17.1688 13.6266 17.5137L12.2016 18.922C11.76 19.3637 11.1683 19.5887 10.585 19.5887ZM5.58496 2.92201C4.55163 2.92201 3.70996 3.75534 3.70996 4.77201V13.8637C3.70996 14.8887 4.55163 15.7137 5.58496 15.7137H6.21829C7.04329 15.7137 7.84329 16.047 8.42663 16.622L9.85163 18.0303C10.26 18.4303 10.9183 18.4303 11.3266 18.0303L12.7516 16.622C13.335 16.047 14.135 15.7137 14.96 15.7137H15.585C16.6183 15.7137 17.46 14.8803 17.46 13.8637V4.77201C17.46 3.747 16.6183 2.92201 15.585 2.92201H5.58496Z" fill="#111111"/>
<path d="M10.5865 9.58724C9.1698 9.58724 8.0198 8.43724 8.0198 7.02057C8.0198 5.60391 9.1698 4.45391 10.5865 4.45391C12.0031 4.45391 13.1531 5.60391 13.1531 7.02057C13.1531 8.43724 12.0031 9.58724 10.5865 9.58724ZM10.5865 5.70391C9.86146 5.70391 9.2698 6.29557 9.2698 7.02057C9.2698 7.74557 9.86146 8.33724 10.5865 8.33724C11.3115 8.33724 11.9031 7.74557 11.9031 7.02057C11.9031 6.29557 11.3115 5.70391 10.5865 5.70391ZM13.9181 14.3022C13.5765 14.3022 13.2931 14.0189 13.2931 13.6772C13.2931 12.5272 12.0765 11.5856 10.5848 11.5856C9.09313 11.5856 7.87646 12.5272 7.87646 13.6772C7.87646 14.0189 7.59313 14.3022 7.25146 14.3022C6.9098 14.3022 6.62646 14.0189 6.62646 13.6772C6.62646 11.8356 8.40146 10.3356 10.5848 10.3356C12.7681 10.3356 14.5431 11.8356 14.5431 13.6772C14.5431 14.0189 14.2598 14.3022 13.9181 14.3022Z" fill="#111111"/>
</svg>
