<svg width="25" height="25" viewBox="0 0 25 25" fill="none" xmlns="http://www.w3.org/2000/svg">
<circle cx="12.9326" cy="12.9258" r="7" fill="white"/>
<path d="M22.0526 7.90578L17.9526 3.80578C17.4726 3.32578 16.5126 2.92578 15.8326 2.92578H10.0326C9.35262 2.92578 8.39262 3.32578 7.91262 3.80578L3.81262 7.90578C3.33262 8.38578 2.93262 9.34578 2.93262 10.0258V15.8258C2.93262 16.5058 3.33262 17.4658 3.81262 17.9458L7.91262 22.0458C8.39262 22.5258 9.35262 22.9258 10.0326 22.9258H15.8326C16.5126 22.9258 17.4726 22.5258 17.9526 22.0458L22.0526 17.9458C22.5326 17.4658 22.9326 16.5058 22.9326 15.8258V10.0258C22.9326 9.34578 22.5326 8.38578 22.0526 7.90578ZM16.9626 15.8958C17.2526 16.1858 17.2526 16.6658 16.9626 16.9558C16.8126 17.1058 16.6226 17.1758 16.4326 17.1758C16.2426 17.1758 16.0526 17.1058 15.9026 16.9558L12.9326 13.9858L9.96262 16.9558C9.81262 17.1058 9.62262 17.1758 9.43262 17.1758C9.24262 17.1758 9.05262 17.1058 8.90262 16.9558C8.76314 16.8146 8.68492 16.6242 8.68492 16.4258C8.68492 16.2274 8.76314 16.0369 8.90262 15.8958L11.8726 12.9258L8.90262 9.95578C8.76314 9.81464 8.68492 9.62421 8.68492 9.42578C8.68492 9.22735 8.76314 9.03692 8.90262 8.89578C9.19262 8.60578 9.67262 8.60578 9.96262 8.89578L12.9326 11.8658L15.9026 8.89578C16.1926 8.60578 16.6726 8.60578 16.9626 8.89578C17.2526 9.18578 17.2526 9.66578 16.9626 9.95578L13.9926 12.9258L16.9626 15.8958Z" fill="#34528A"/>
</svg>
