<svg width="18" height="18" viewBox="0 0 18 18" fill="none" xmlns="http://www.w3.org/2000/svg">
<g clip-path="url(#clip0_59_6700)">
<path d="M13.0478 7.46983V4.77765C13.055 3.55951 12.5684 2.38821 11.6999 1.53407C10.8602 0.697941 9.76094 0.240234 8.59685 0.240234C8.57883 0.240234 8.55721 0.240234 8.53919 0.240234C6.05604 0.243838 4.03781 2.27649 4.03781 4.77765V7.46983C3.10077 7.58155 2.41602 8.36722 2.41602 9.31867V15.3662C2.41602 16.3933 3.23772 17.2402 4.26486 17.2402H12.8243C13.8515 17.2402 14.6732 16.3933 14.6732 15.3662V9.31867C14.6696 8.37083 13.9848 7.58155 13.0478 7.46983ZM4.755 4.77765H4.75861C4.75861 2.67292 6.45608 0.95022 8.54279 0.95022H8.54639C9.53749 0.946616 10.4889 1.33945 11.1917 2.03862C11.9233 2.76302 12.3306 3.75052 12.3234 4.77765V7.47343H11.5305V4.77765C11.5377 3.95955 11.2133 3.17388 10.6331 2.59724C10.0853 2.04944 9.34288 1.73949 8.56802 1.73949H8.54639C6.88856 1.73949 5.54788 3.1018 5.54788 4.77405V7.47343H4.755V4.77765ZM10.8133 4.77765V7.47343H6.27228V4.77765C6.27228 3.50184 7.2886 2.46389 8.55 2.46389H8.57162C9.15547 2.46389 9.71769 2.69815 10.1321 3.11261C10.5718 3.5523 10.8205 4.15416 10.8133 4.77765ZM13.9848 15.377C13.9848 16.0077 13.473 16.5194 12.8423 16.5194H4.27928C3.64858 16.5194 3.13681 16.0077 3.13681 15.377V9.33669C3.13681 8.706 3.64858 8.19423 4.27928 8.19423H12.8423C13.473 8.19423 13.9848 8.706 13.9848 9.33669V15.377Z" fill="#000842"/>
<path d="M9.79021 12.1334C9.63163 11.5748 9.12347 11.1928 8.54323 11.1928C7.82603 11.1928 7.24219 11.773 7.24219 12.4938C7.24219 13.074 7.62421 13.5822 8.18283 13.7408V14.7499C8.18283 14.9481 8.34501 15.1103 8.54323 15.1103C8.74145 15.1103 8.90363 14.9481 8.90363 14.7499V13.7408C9.59199 13.5426 9.99203 12.8218 9.79021 12.1334ZM8.54323 13.0704C8.22247 13.0704 7.96298 12.811 7.96298 12.4902C7.96298 12.1694 8.22247 11.91 8.54323 11.91C8.86398 11.91 9.12347 12.1694 9.12347 12.4902C9.12347 12.811 8.86398 13.0704 8.54323 13.0704Z" fill="#000842"/>
</g>
<defs>
<clipPath id="clip0_59_6700">
<rect width="17" height="17" fill="white" transform="translate(0.0449219 0.240234)"/>
</clipPath>
</defs>
</svg>
