<svg width="20" height="21" viewBox="0 0 20 21" fill="none" xmlns="http://www.w3.org/2000/svg">
<path d="M10.0002 19.6078C9.8002 19.6078 9.6002 19.5828 9.40853 19.5245C5.08353 18.3328 1.9502 14.2911 1.9502 9.9078V6.24947C1.9502 5.31614 2.6252 4.30781 3.49186 3.94947L8.13353 2.04947C9.3294 1.55773 10.671 1.55773 11.8669 2.04947L16.5085 3.94947C17.3752 4.30781 18.0502 5.31614 18.0502 6.24947V9.9078C18.0502 14.2828 14.9085 18.3245 10.5919 19.5245C10.4002 19.5828 10.2002 19.6078 10.0002 19.6078ZM10.0002 2.94114C9.52283 2.94134 9.05009 3.03475 8.60853 3.21614L3.96686 5.11614C3.56686 5.28281 3.2002 5.82447 3.2002 6.25781V9.91614C3.2002 13.7411 5.95019 17.2745 9.74186 18.3245C9.90853 18.3745 10.0919 18.3745 10.2585 18.3245C14.0502 17.2745 16.8002 13.7411 16.8002 9.91614V6.25781C16.8002 5.82447 16.4335 5.28281 16.0335 5.11614L11.3919 3.21614C10.9503 3.03475 10.4776 2.94134 10.0002 2.94114Z" fill="#111111"/>
<path d="M10.0002 11.6888C8.7335 11.6888 7.7085 10.6638 7.7085 9.39714C7.7085 8.13047 8.7335 7.10547 10.0002 7.10547C11.2668 7.10547 12.2918 8.13047 12.2918 9.39714C12.2918 10.6638 11.2668 11.6888 10.0002 11.6888ZM10.0002 8.35547C9.7239 8.35547 9.45894 8.46522 9.26359 8.66057C9.06824 8.85592 8.9585 9.12087 8.9585 9.39714C8.9585 9.6734 9.06824 9.93835 9.26359 10.1337C9.45894 10.3291 9.7239 10.4388 10.0002 10.4388C10.2764 10.4388 10.5414 10.3291 10.7367 10.1337C10.9321 9.93835 11.0418 9.6734 11.0418 9.39714C11.0418 9.12087 10.9321 8.85592 10.7367 8.66057C10.5414 8.46522 10.2764 8.35547 10.0002 8.35547Z" fill="#111111"/>
<path d="M10 14.1904C9.65833 14.1904 9.375 13.9071 9.375 13.5654V11.0654C9.375 10.7238 9.65833 10.4404 10 10.4404C10.3417 10.4404 10.625 10.7238 10.625 11.0654V13.5654C10.625 13.9071 10.3417 14.1904 10 14.1904Z" fill="#111111"/>
</svg>
