<svg width="81" height="80" viewBox="0 0 81 80" fill="none" xmlns="http://www.w3.org/2000/svg">
<circle cx="40.1406" cy="40" r="40" fill="#0071FF"/>
<path d="M27.4905 47.9167C27.0905 52.7334 30.7238 56.6667 35.5572 56.6667H43.5405C48.9738 56.6667 52.7072 52.2834 51.8072 46.9167C50.8572 41.2834 45.4238 36.6667 39.7072 36.6667C33.5072 36.6667 28.0072 41.7334 27.4905 47.9167ZM37.5905 32.5001C38.6956 32.5001 39.7554 32.0611 40.5368 31.2797C41.3182 30.4983 41.7572 29.4385 41.7572 28.3334C41.7572 27.2283 41.3182 26.1685 40.5368 25.3871C39.7554 24.6057 38.6956 24.1667 37.5905 24.1667C36.4854 24.1667 35.4256 24.6057 34.6442 25.3871C33.8628 26.1685 33.4238 27.2283 33.4238 28.3334C33.4238 29.4385 33.8628 30.4983 34.6442 31.2797C35.4256 32.0611 36.4854 32.5001 37.5905 32.5001ZM48.9738 34.5001C49.8579 34.5001 50.7057 34.1489 51.3309 33.5238C51.956 32.8986 52.3072 32.0508 52.3072 31.1667C52.3072 30.2827 51.956 29.4348 51.3309 28.8097C50.7057 28.1846 49.8579 27.8334 48.9738 27.8334C48.0898 27.8334 47.2419 28.1846 46.6168 28.8097C45.9917 29.4348 45.6405 30.2827 45.6405 31.1667C45.6405 32.0508 45.9917 32.8986 46.6168 33.5238C47.2419 34.1489 48.0898 34.5001 48.9738 34.5001ZM55.1405 41.1667C55.4688 41.1667 55.7939 41.1021 56.0972 40.9764C56.4005 40.8508 56.6761 40.6667 56.9083 40.4345C57.1404 40.2024 57.3246 39.9268 57.4502 39.6235C57.5758 39.3201 57.6405 38.9951 57.6405 38.6667C57.6405 38.3384 57.5758 38.0134 57.4502 37.71C57.3246 37.4067 57.1404 37.1311 56.9083 36.899C56.6761 36.6668 56.4005 36.4827 56.0972 36.357C55.7939 36.2314 55.4688 36.1667 55.1405 36.1667C54.4775 36.1667 53.8416 36.4301 53.3727 36.899C52.9039 37.3678 52.6405 38.0037 52.6405 38.6667C52.6405 39.3298 52.9039 39.9657 53.3727 40.4345C53.8416 40.9034 54.4775 41.1667 55.1405 41.1667ZM26.7572 37.8334C27.6412 37.8334 28.4891 37.4822 29.1142 36.8571C29.7393 36.232 30.0905 35.3841 30.0905 34.5001C30.0905 33.616 29.7393 32.7682 29.1142 32.1431C28.4891 31.5179 27.6412 31.1667 26.7572 31.1667C25.8731 31.1667 25.0253 31.5179 24.4001 32.1431C23.775 32.7682 23.4238 33.616 23.4238 34.5001C23.4238 35.3841 23.775 36.232 24.4001 36.8571C25.0253 37.4822 25.8731 37.8334 26.7572 37.8334Z" stroke="white" stroke-width="2.5" stroke-linecap="round" stroke-linejoin="round"/>
</svg>
