<svg width="21" height="21" viewBox="0 0 21 21" fill="none" xmlns="http://www.w3.org/2000/svg">
<path d="M13.9183 19.3177H7.25163C4.20996 19.3177 2.45996 17.5677 2.45996 14.5261V6.19273C2.45996 3.15106 4.20996 1.40106 7.25163 1.40106H13.9183C16.96 1.40106 18.71 3.15106 18.71 6.19273V14.5261C18.71 17.5677 16.96 19.3177 13.9183 19.3177ZM7.25163 2.65106C4.86829 2.65106 3.70996 3.8094 3.70996 6.19273V14.5261C3.70996 16.9094 4.86829 18.0677 7.25163 18.0677H13.9183C16.3016 18.0677 17.46 16.9094 17.46 14.5261V6.19273C17.46 3.8094 16.3016 2.65106 13.9183 2.65106H7.25163Z" fill="black"/>
<path d="M8.08512 9.61773C7.94885 9.61839 7.81378 9.59217 7.68764 9.54057C7.56151 9.48898 7.44678 9.41302 7.35003 9.31705C7.25328 9.22107 7.17641 9.10696 7.1238 8.98124C7.0712 8.85553 7.04389 8.72067 7.04346 8.58439V2.02606C7.04346 1.6844 7.32679 1.40106 7.66846 1.40106H13.5018C13.8435 1.40106 14.1268 1.6844 14.1268 2.02606V8.57606C14.1268 8.99273 13.8851 9.36773 13.5018 9.52606C13.1268 9.69273 12.6851 9.61773 12.3768 9.3344L10.5851 7.69273L8.79346 9.34273C8.59346 9.52606 8.34346 9.61773 8.08512 9.61773ZM10.5851 6.36773C10.8351 6.36773 11.0935 6.4594 11.2935 6.64273L12.8768 8.10106V2.65106H8.29346V8.10106L9.87679 6.64273C10.0768 6.4594 10.3351 6.36773 10.5851 6.36773ZM15.1685 12.6511H11.6268C11.2851 12.6511 11.0018 12.3677 11.0018 12.0261C11.0018 11.6844 11.2851 11.4011 11.6268 11.4011H15.1685C15.5101 11.4011 15.7935 11.6844 15.7935 12.0261C15.7935 12.3677 15.5101 12.6511 15.1685 12.6511ZM15.1685 15.9844H8.08512C7.74346 15.9844 7.46012 15.7011 7.46012 15.3594C7.46012 15.0177 7.74346 14.7344 8.08512 14.7344H15.1685C15.5101 14.7344 15.7935 15.0177 15.7935 15.3594C15.7935 15.7011 15.5101 15.9844 15.1685 15.9844Z" fill="black"/>
</svg>
