<svg width="61" height="61" viewBox="0 0 61 61" fill="none" xmlns="http://www.w3.org/2000/svg">
<circle cx="30.4805" cy="30.0273" r="30" fill="#4318FF"/>
<path d="M39.7555 29.7148H35.4805C34.968 29.7148 34.543 29.2898 34.543 28.7773V20.0398C34.543 19.1148 34.9055 18.2523 35.5555 17.6023C36.2055 16.9523 37.068 16.5898 37.993 16.5898H38.0055C39.568 16.6023 41.043 17.2148 42.168 18.3273C43.293 19.4648 43.9055 20.9648 43.9055 22.5273V25.5523C43.918 28.0398 42.243 29.7148 39.7555 29.7148ZM36.418 27.8398H39.7555C41.2055 27.8398 42.043 27.0023 42.043 25.5523V22.5273C42.043 21.4523 41.618 20.4273 40.8555 19.6523C40.093 18.9023 39.0805 18.4773 38.0055 18.4648H37.993C37.5805 18.4648 37.1805 18.6273 36.8805 18.9273C36.5805 19.2273 36.418 19.6148 36.418 20.0398V27.8398Z" fill="white"/>
<path d="M26.7277 44.1898C26.1402 44.1898 25.5902 43.9648 25.1777 43.5398L23.1027 41.4523C23.0494 41.3977 22.9776 41.3648 22.9013 41.3602C22.8251 41.3556 22.7498 41.3795 22.6902 41.4273L20.5527 43.0273C19.8902 43.5273 19.0152 43.6148 18.2652 43.2398C17.5152 42.8648 17.0527 42.1148 17.0527 41.2773V22.5273C17.0527 18.7523 19.2152 16.5898 22.9902 16.5898H37.9902C38.5027 16.5898 38.9277 17.0148 38.9277 17.5273C38.9277 18.0398 38.5027 18.4648 37.9902 18.4648C37.1277 18.4648 36.4277 19.1648 36.4277 20.0273V41.2773C36.4277 42.1148 35.9652 42.8648 35.2152 43.2398C34.4777 43.6148 33.5902 43.5273 32.9277 43.0273L30.7902 41.4273C30.7319 41.3822 30.6591 41.3599 30.5855 41.3645C30.5119 41.3691 30.4425 41.4003 30.3902 41.4523L28.2902 43.5523C27.8652 43.9648 27.3152 44.1898 26.7277 44.1898ZM22.8652 39.4898C23.4402 39.4898 24.0027 39.7023 24.4277 40.1398L26.5027 42.2273C26.5777 42.3023 26.6777 42.3148 26.7277 42.3148C26.7777 42.3148 26.8777 42.3023 26.9527 42.2273L29.0527 40.1273C29.8277 39.3523 31.0527 39.2773 31.9152 39.9398L34.0402 41.5273C34.1777 41.6273 34.3027 41.5898 34.3652 41.5523C34.4277 41.5148 34.5402 41.4398 34.5402 41.2773V20.0273C34.5402 19.4648 34.6777 18.9273 34.9152 18.4648H22.9777C20.2027 18.4648 18.9152 19.7523 18.9152 22.5273V41.2773C18.9152 41.4523 19.0277 41.5273 19.0902 41.5648C19.1652 41.6023 19.2902 41.6273 19.4152 41.5273L21.5527 39.9273C21.9402 39.6398 22.4027 39.4898 22.8652 39.4898Z" fill="white"/>
<path d="M28.061 33.4732H25.7605C24.2574 33.4732 23.0385 32.2084 23.0385 30.6503C23.0385 30.2745 23.3501 29.9629 23.7259 29.9629C24.1016 29.9629 24.4132 30.2745 24.4132 30.6503C24.4132 31.4477 25.0182 32.0984 25.7605 32.0984H28.061C28.6567 32.0984 29.1517 31.5668 29.1517 30.9253C29.1517 30.1279 28.8675 29.9721 28.4001 29.8071L24.7065 28.5056C23.9916 28.2582 23.0293 27.7266 23.0293 26.086C23.0293 24.6746 24.1383 23.5381 25.4947 23.5381H27.7952C29.2983 23.5381 30.5173 24.8029 30.5173 26.361C30.5173 26.7367 30.2057 27.0484 29.8299 27.0484C29.4541 27.0484 29.1425 26.7367 29.1425 26.361C29.1425 25.5636 28.5376 24.9129 27.7952 24.9129H25.4947C24.899 24.9129 24.4041 25.4445 24.4041 26.086C24.4041 26.8834 24.6882 27.0392 25.1556 27.2042L28.8492 28.5056C29.5641 28.7531 30.5264 29.2847 30.5264 30.9253C30.5173 32.3275 29.4175 33.4732 28.061 33.4732Z" fill="white"/>
<path d="M26.7772 34.6953C26.4015 34.6953 26.0898 34.3837 26.0898 34.0079V23.0097C26.0898 22.6339 26.4015 22.3223 26.7772 22.3223C27.153 22.3223 27.4646 22.6339 27.4646 23.0097V34.0079C27.4646 34.3837 27.153 34.6953 26.7772 34.6953Z" fill="white"/>
</svg>
