<svg width="21" height="21" viewBox="0 0 21 21" fill="none" xmlns="http://www.w3.org/2000/svg">
<path d="M10.5848 16.4199C8.40146 16.4199 6.62646 14.6449 6.62646 12.4616C6.62646 10.2783 8.40146 8.50326 10.5848 8.50326C12.7681 8.50326 14.5431 10.2783 14.5431 12.4616C14.5431 14.6449 12.7681 16.4199 10.5848 16.4199ZM10.5848 9.75326C9.09313 9.75326 7.87646 10.9699 7.87646 12.4616C7.87646 13.9533 9.09313 15.1699 10.5848 15.1699C12.0765 15.1699 13.2931 13.9533 13.2931 12.4616C13.2931 10.9699 12.0765 9.75326 10.5848 9.75326Z" fill="#111111"/>
<path d="M10.1176 13.8211C9.85088 13.8211 9.58422 13.7211 9.38422 13.5211L8.84255 12.9794C8.72632 12.8618 8.66113 12.7031 8.66113 12.5377C8.66113 12.3724 8.72632 12.2137 8.84255 12.0961C9.08422 11.8544 9.48422 11.8544 9.72588 12.0961L10.1259 12.4961L11.4676 11.2627C11.7176 11.0294 12.1176 11.0461 12.3509 11.2961C12.5842 11.5461 12.5676 11.9461 12.3176 12.1794L10.8342 13.5461C10.6259 13.7294 10.3759 13.8211 10.1176 13.8211Z" fill="#111111"/>
<path d="M13.9167 19.5887H7.25003C3.40003 19.5887 2.68336 17.797 2.50003 16.0553L1.87503 9.38034C1.78336 8.50534 1.75836 7.21367 2.62503 6.24701C3.37503 5.41367 4.61669 5.01367 6.41669 5.01367H14.75C16.5584 5.01367 17.8 5.42201 18.5417 6.24701C19.4084 7.21367 19.3834 8.50534 19.2917 9.38867L18.6667 16.047C18.4834 17.797 17.7667 19.5887 13.9167 19.5887ZM6.41669 6.25534C5.00836 6.25534 4.04169 6.53034 3.55003 7.08034C3.14169 7.53034 3.00836 8.22201 3.11669 9.25534L3.74169 15.9303C3.88336 17.247 4.24169 18.3387 7.25003 18.3387H13.9167C16.9167 18.3387 17.2834 17.247 17.425 15.922L18.05 9.26367C18.1584 8.22201 18.025 7.53034 17.6167 7.08034C17.125 6.53034 16.1584 6.25534 14.75 6.25534H6.41669Z" fill="#111111"/>
<path d="M13.9183 6.2539C13.5766 6.2539 13.2933 5.97057 13.2933 5.6289V4.96224C13.2933 3.4789 13.2933 2.92057 11.2516 2.92057H9.91827C7.87661 2.92057 7.87661 3.4789 7.87661 4.96224V5.6289C7.87661 5.97057 7.59327 6.2539 7.25161 6.2539C6.90994 6.2539 6.62661 5.97057 6.62661 5.6289V4.96224C6.62661 3.49557 6.62661 1.67057 9.91827 1.67057H11.2516C14.5433 1.67057 14.5433 3.49557 14.5433 4.96224V5.6289C14.5433 5.97057 14.2599 6.2539 13.9183 6.2539ZM13.9266 12.6222C13.6433 12.6222 13.3933 12.4306 13.3183 12.1472C13.2349 11.8139 13.4349 11.4722 13.7683 11.3889C15.3933 10.9806 16.9016 10.2722 18.2516 9.2889C18.5266 9.0889 18.9183 9.14724 19.1266 9.43057C19.3266 9.70557 19.2683 10.0972 18.9849 10.3056C17.508 11.3792 15.839 12.1599 14.0683 12.6056C14.0217 12.6157 13.9743 12.6213 13.9266 12.6222ZM7.25161 12.6456C7.2016 12.6456 7.15161 12.6372 7.1016 12.6289C5.4266 12.2206 3.8516 11.5122 2.40994 10.5289C2.27365 10.4355 2.1797 10.2921 2.1485 10.1298C2.1173 9.96756 2.15135 9.79954 2.24327 9.66224C2.43494 9.3789 2.8266 9.3039 3.10994 9.49557C4.4266 10.3956 5.85994 11.0372 7.39327 11.4122C7.7266 11.4956 7.93494 11.8289 7.8516 12.1706C7.79327 12.4539 7.53494 12.6456 7.25161 12.6456Z" fill="#111111"/>
</svg>
