<svg width="21" height="21" viewBox="0 0 21 21" fill="none" xmlns="http://www.w3.org/2000/svg">
<path d="M9.36855 18.9123C9.17689 18.9123 8.99355 18.8289 8.86855 18.6623L8.02689 17.5373C7.85189 17.3039 7.61856 17.1706 7.36856 17.1539C7.11022 17.1373 6.86855 17.2539 6.66855 17.4623C5.46022 18.7539 4.54355 18.6456 4.10189 18.4789C3.65189 18.3039 2.89355 17.7289 2.89355 15.8789V6.49559C2.89355 2.79559 3.96022 1.67059 7.45189 1.67059H13.7436C17.2352 1.67059 18.3019 2.79559 18.3019 6.49559V10.0456C18.3019 10.3873 18.0186 10.6706 17.6769 10.6706C17.3352 10.6706 17.0519 10.3873 17.0519 10.0456V6.49559C17.0519 3.48726 16.5269 2.92059 13.7436 2.92059H7.45189C4.66855 2.92059 4.14355 3.48726 4.14355 6.49559V15.8789C4.14355 16.7539 4.36022 17.2373 4.56022 17.3123C4.71022 17.3706 5.11855 17.2873 5.75189 16.6123C6.21022 16.1289 6.81022 15.8706 7.43522 15.9039C8.05189 15.9373 8.63522 16.2623 9.02689 16.7873L9.87689 17.9123C9.94697 18.0057 9.98948 18.1169 9.99959 18.2332C10.0097 18.3496 9.987 18.4664 9.93408 18.5705C9.88116 18.6746 9.80012 18.7618 9.70017 18.8222C9.60021 18.8826 9.48533 18.9138 9.36855 18.9123Z" fill="black"/>
<path d="M13.9186 7.08722H7.25195C6.91029 7.08722 6.62695 6.80389 6.62695 6.46222C6.62695 6.12055 6.91029 5.83722 7.25195 5.83722H13.9186C14.2603 5.83722 14.5436 6.12055 14.5436 6.46222C14.5436 6.80389 14.2603 7.08722 13.9186 7.08722ZM13.0853 10.4206H8.08529C7.74362 10.4206 7.46029 10.1372 7.46029 9.79555C7.46029 9.45389 7.74362 9.17055 8.08529 9.17055H13.0853C13.427 9.17055 13.7103 9.45389 13.7103 9.79555C13.7103 10.1372 13.427 10.4206 13.0853 10.4206ZM12.9353 18.7806C12.6186 18.7806 12.3186 18.6639 12.102 18.4472C11.8436 18.1889 11.727 17.8139 11.7853 17.4222L11.9436 16.2972C11.9853 16.0056 12.1603 15.6556 12.3686 15.4472L15.3186 12.4972C15.7186 12.0972 16.1103 11.8889 16.5353 11.8472C17.052 11.7972 17.5686 12.0139 18.052 12.4972C18.5353 12.9806 18.752 13.4889 18.702 14.0139C18.6603 14.4306 18.4436 14.8306 18.052 15.2306L15.102 18.1806C14.8936 18.3889 14.5436 18.5639 14.252 18.6056L13.127 18.7639C13.0603 18.7722 13.002 18.7806 12.9353 18.7806ZM16.677 13.0889H16.652C16.5353 13.0972 16.377 13.2056 16.202 13.3806L13.252 16.3306C13.2182 16.3714 13.1953 16.4202 13.1853 16.4722L13.0353 17.5139L14.077 17.3639C14.1103 17.3556 14.1936 17.3139 14.2186 17.2889L17.1686 14.3389C17.3436 14.1556 17.452 14.0056 17.4603 13.8889C17.477 13.7222 17.3103 13.5222 17.1686 13.3806C17.0353 13.2472 16.8436 13.0889 16.677 13.0889Z" fill="black"/>
<path d="M17.1853 15.8372C17.127 15.8372 17.0687 15.8289 17.0187 15.8122C16.4749 15.6579 15.9797 15.3671 15.5801 14.9675C15.1804 14.5678 14.8896 14.0726 14.7353 13.5289C14.6915 13.3687 14.7124 13.1977 14.7934 13.0527C14.8745 12.9078 15.0092 12.8005 15.1687 12.7539C15.502 12.6622 15.8437 12.8539 15.9353 13.1872C16.127 13.8706 16.6687 14.4122 17.352 14.6039C17.4968 14.6459 17.6217 14.7386 17.7039 14.8649C17.7862 14.9913 17.8203 15.143 17.8001 15.2924C17.7799 15.4418 17.7067 15.579 17.5939 15.679C17.4811 15.779 17.3361 15.8351 17.1853 15.8372Z" fill="black"/>
</svg>
