<svg width="21" height="21" viewBox="0 0 21 21" fill="none" xmlns="http://www.w3.org/2000/svg">
<path d="M14.7515 18.7539H6.41813C2.74313 18.7539 1.62646 17.6372 1.62646 13.9622V7.29557C1.62646 3.62057 2.74313 2.50391 6.41813 2.50391H14.7515C18.4265 2.50391 19.5431 3.62057 19.5431 7.29557V13.9622C19.5431 17.6372 18.4265 18.7539 14.7515 18.7539ZM6.41813 3.75391C3.4348 3.75391 2.87646 4.32057 2.87646 7.29557V13.9622C2.87646 16.9372 3.4348 17.5039 6.41813 17.5039H14.7515C17.7348 17.5039 18.2931 16.9372 18.2931 13.9622V7.29557C18.2931 4.32057 17.7348 3.75391 14.7515 3.75391H6.41813Z" fill="#111111"/>
<path d="M16.4183 7.92058H12.2516C11.9099 7.92058 11.6266 7.63725 11.6266 7.29558C11.6266 6.95391 11.9099 6.67058 12.2516 6.67058H16.4183C16.7599 6.67058 17.0433 6.95391 17.0433 7.29558C17.0433 7.63725 16.7599 7.92058 16.4183 7.92058ZM16.4183 11.2539H13.0849C12.7433 11.2539 12.4599 10.9706 12.4599 10.6289C12.4599 10.2872 12.7433 10.0039 13.0849 10.0039H16.4183C16.7599 10.0039 17.0433 10.2872 17.0433 10.6289C17.0433 10.9706 16.7599 11.2539 16.4183 11.2539ZM16.4183 14.5872H14.7516C14.4099 14.5872 14.1266 14.3039 14.1266 13.9622C14.1266 13.6206 14.4099 13.3372 14.7516 13.3372H16.4183C16.7599 13.3372 17.0433 13.6206 17.0433 13.9622C17.0433 14.3039 16.7599 14.5872 16.4183 14.5872ZM7.66828 10.6639C6.49328 10.6639 5.53494 9.70558 5.53494 8.53058C5.53494 7.35558 6.49328 6.39725 7.66828 6.39725C8.84328 6.39725 9.80161 7.35558 9.80161 8.53058C9.80161 9.70558 8.84328 10.6639 7.66828 10.6639ZM7.66828 7.64725C7.18494 7.64725 6.78494 8.04725 6.78494 8.53058C6.78494 9.01391 7.18494 9.41391 7.66828 9.41391C8.15161 9.41391 8.55161 9.01391 8.55161 8.53058C8.55161 8.04725 8.15161 7.64725 7.66828 7.64725ZM10.5849 14.8639C10.2683 14.8639 9.99328 14.6222 9.95994 14.2972C9.91367 13.8572 9.71664 13.4467 9.40224 13.1353C9.08784 12.824 8.67543 12.6309 8.23494 12.5889C7.85234 12.5556 7.46755 12.5556 7.08494 12.5889C6.17661 12.6722 5.45161 13.3889 5.35994 14.2972C5.32661 14.6389 5.01828 14.8972 4.67661 14.8556C4.51207 14.8387 4.36091 14.7574 4.25625 14.6293C4.1516 14.5012 4.10198 14.3368 4.11828 14.1722C4.26828 12.6722 5.45994 11.4806 6.96828 11.3472C7.42661 11.3056 7.89328 11.3056 8.35161 11.3472C9.85161 11.4889 11.0516 12.6806 11.2016 14.1722C11.2179 14.3368 11.1683 14.5012 11.0636 14.6293C10.959 14.7574 10.8078 14.8387 10.6433 14.8556C10.6266 14.8639 10.6016 14.8639 10.5849 14.8639Z" fill="#111111"/>
</svg>
