<svg width="81" height="80" viewBox="0 0 81 80" fill="none" xmlns="http://www.w3.org/2000/svg">
<circle cx="40.8008" cy="40" r="40" fill="#FF9900"/>
<path d="M47.4674 57.9166H34.1341C28.0508 57.9166 24.5508 54.4166 24.5508 48.3333V31.6666C24.5508 25.5833 28.0508 22.0833 34.1341 22.0833H47.4674C53.5508 22.0833 57.0508 25.5833 57.0508 31.6666V48.3333C57.0508 54.4166 53.5508 57.9166 47.4674 57.9166ZM34.1341 24.5833C29.3674 24.5833 27.0508 26.8999 27.0508 31.6666V48.3333C27.0508 53.0999 29.3674 55.4166 34.1341 55.4166H47.4674C52.2341 55.4166 54.5508 53.0999 54.5508 48.3333V31.6666C54.5508 26.8999 52.2341 24.5833 47.4674 24.5833H34.1341Z" fill="white"/>
<path d="M35.8011 38.5166C35.5286 38.5179 35.2584 38.4655 35.0061 38.3623C34.7539 38.2591 34.5244 38.1072 34.3309 37.9152C34.1374 37.7233 33.9837 37.495 33.8785 37.2436C33.7733 36.9922 33.7186 36.7225 33.7178 36.4499V23.3333C33.7178 22.6499 34.2844 22.0833 34.9678 22.0833H46.6344C47.3178 22.0833 47.8844 22.6499 47.8844 23.3333V36.4333C47.8844 37.2666 47.4011 38.0166 46.6344 38.3333C45.8844 38.6666 45.0011 38.5166 44.3844 37.9499L40.8011 34.6666L37.2178 37.9666C36.8178 38.3333 36.3178 38.5166 35.8011 38.5166ZM40.8011 32.0166C41.3011 32.0166 41.8178 32.1999 42.2178 32.5666L45.3844 35.4833V24.5833H36.2178V35.4833L39.3844 32.5666C39.7844 32.1999 40.3011 32.0166 40.8011 32.0166ZM49.9678 44.5833H42.8844C42.2011 44.5833 41.6344 44.0166 41.6344 43.3333C41.6344 42.6499 42.2011 42.0833 42.8844 42.0833H49.9678C50.6511 42.0833 51.2178 42.6499 51.2178 43.3333C51.2178 44.0166 50.6511 44.5833 49.9678 44.5833ZM49.9678 51.2499H35.8011C35.1178 51.2499 34.5511 50.6833 34.5511 49.9999C34.5511 49.3166 35.1178 48.7499 35.8011 48.7499H49.9678C50.6511 48.7499 51.2178 49.3166 51.2178 49.9999C51.2178 50.6833 50.6511 51.2499 49.9678 51.2499Z" fill="white"/>
</svg>
