<svg width="13" height="13" viewBox="0 0 13 13" fill="none" xmlns="http://www.w3.org/2000/svg">
<path d="M11.803 9.30033L10.1472 7.64454C9.55586 7.05319 8.55056 7.28976 8.31402 8.05849C8.13661 8.59073 7.54526 8.88641 7.01304 8.76812C5.83033 8.47244 4.23368 6.93492 3.938 5.69308C3.76059 5.16084 4.11541 4.56948 4.64762 4.3921C5.41638 4.15556 5.65293 3.15026 5.06157 2.5589L3.40578 0.903112C2.9327 0.489164 2.22307 0.489164 1.80913 0.903112L0.685556 2.02668C-0.438016 3.20939 0.803827 6.34357 3.58319 9.12293C6.36255 11.9023 9.49672 13.2033 10.6794 12.0206L11.803 10.897C12.217 10.4239 12.217 9.71428 11.803 9.30033Z" fill="white"/>
</svg>
