<svg width="61" height="61" viewBox="0 0 61 61" fill="none" xmlns="http://www.w3.org/2000/svg">
<circle cx="30.4805" cy="30.0273" r="30" fill="#34528A"/>
<path d="M25.4805 22.2148C24.968 22.2148 24.543 21.7898 24.543 21.2773V17.5273C24.543 17.0148 24.968 16.5898 25.4805 16.5898C25.993 16.5898 26.418 17.0148 26.418 17.5273V21.2773C26.418 21.7898 25.993 22.2148 25.4805 22.2148ZM35.4805 22.2148C34.968 22.2148 34.543 21.7898 34.543 21.2773V17.5273C34.543 17.0148 34.968 16.5898 35.4805 16.5898C35.993 16.5898 36.418 17.0148 36.418 17.5273V21.2773C36.418 21.7898 35.993 22.2148 35.4805 22.2148ZM26.1055 33.1498C25.943 33.1498 25.7805 33.1123 25.6305 33.0498C25.468 32.9873 25.343 32.8998 25.218 32.7873C24.993 32.5498 24.8555 32.2373 24.8555 31.8998C24.8555 31.7373 24.893 31.5748 24.9555 31.4248C25.018 31.2748 25.1055 31.1373 25.218 31.0123C25.343 30.8998 25.468 30.8123 25.6305 30.7498C26.0805 30.5623 26.643 30.6623 26.993 31.0123C27.218 31.2498 27.3555 31.5748 27.3555 31.8998C27.3555 31.9748 27.343 32.0623 27.3305 32.1498C27.318 32.2248 27.293 32.2998 27.2555 32.3748C27.2305 32.4498 27.193 32.5248 27.143 32.5998C27.1055 32.6623 27.043 32.7248 26.993 32.7873C26.7555 33.0123 26.4305 33.1498 26.1055 33.1498ZM30.4805 33.1511C30.318 33.1511 30.1555 33.1136 30.0055 33.0511C29.843 32.9886 29.718 32.9011 29.593 32.7886C29.368 32.5511 29.2305 32.2386 29.2305 31.9011C29.2305 31.7386 29.268 31.5761 29.3305 31.4261C29.393 31.2761 29.4805 31.1386 29.593 31.0136C29.718 30.9011 29.843 30.8136 30.0055 30.7511C30.4555 30.5511 31.018 30.6636 31.368 31.0136C31.593 31.2511 31.7305 31.5761 31.7305 31.9011C31.7305 31.9761 31.718 32.0636 31.7055 32.1511C31.693 32.2261 31.668 32.3011 31.6305 32.3761C31.6055 32.4511 31.568 32.5261 31.518 32.6011C31.4805 32.6636 31.418 32.7261 31.368 32.7886C31.1305 33.0136 30.8055 33.1511 30.4805 33.1511ZM34.8555 33.1511C34.693 33.1511 34.5305 33.1136 34.3805 33.0511C34.218 32.9886 34.093 32.9011 33.968 32.7886L33.818 32.6011C33.7706 32.5314 33.7328 32.4558 33.7055 32.3761C33.6694 32.3053 33.6441 32.2294 33.6305 32.1511C33.618 32.0636 33.6055 31.9761 33.6055 31.9011C33.6055 31.5761 33.743 31.2511 33.968 31.0136C34.093 30.9011 34.218 30.8136 34.3805 30.7511C34.843 30.5511 35.393 30.6636 35.743 31.0136C35.968 31.2511 36.1055 31.5761 36.1055 31.9011C36.1055 31.9761 36.093 32.0636 36.0805 32.1511C36.068 32.2261 36.043 32.3011 36.0055 32.3761C35.9805 32.4511 35.943 32.5261 35.893 32.6011C35.8555 32.6636 35.793 32.7261 35.743 32.7886C35.5055 33.0136 35.1805 33.1511 34.8555 33.1511ZM26.1055 37.5273C25.943 37.5273 25.7805 37.4898 25.6305 37.4273C25.4805 37.3648 25.343 37.2773 25.218 37.1648C24.993 36.9273 24.8555 36.6023 24.8555 36.2773C24.8555 36.1148 24.893 35.9523 24.9555 35.8023C25.018 35.6398 25.1055 35.5023 25.218 35.3898C25.6805 34.9273 26.5305 34.9273 26.993 35.3898C27.218 35.6273 27.3555 35.9523 27.3555 36.2773C27.3555 36.6023 27.218 36.9273 26.993 37.1648C26.7555 37.3898 26.4305 37.5273 26.1055 37.5273ZM30.4805 37.5273C30.1555 37.5273 29.8305 37.3898 29.593 37.1648C29.368 36.9273 29.2305 36.6023 29.2305 36.2773C29.2305 36.1148 29.268 35.9523 29.3305 35.8023C29.393 35.6398 29.4805 35.5023 29.593 35.3898C30.0555 34.9273 30.9055 34.9273 31.368 35.3898C31.4805 35.5023 31.568 35.6398 31.6305 35.8023C31.693 35.9523 31.7305 36.1148 31.7305 36.2773C31.7305 36.6023 31.593 36.9273 31.368 37.1648C31.1305 37.3898 30.8055 37.5273 30.4805 37.5273ZM34.8555 37.5273C34.5305 37.5273 34.2055 37.3898 33.968 37.1648C33.8523 37.0474 33.7628 36.9068 33.7055 36.7523C33.6413 36.6021 33.6073 36.4407 33.6055 36.2773C33.6055 36.1148 33.643 35.9523 33.7055 35.8023C33.768 35.6398 33.8555 35.5023 33.968 35.3898C34.2555 35.1023 34.693 34.9648 35.093 35.0523C35.1805 35.0648 35.2555 35.0898 35.3305 35.1273C35.4055 35.1523 35.4805 35.1898 35.5555 35.2398C35.618 35.2773 35.6805 35.3398 35.743 35.3898C35.968 35.6273 36.1055 35.9523 36.1055 36.2773C36.1055 36.6023 35.968 36.9273 35.743 37.1648C35.5055 37.3898 35.1805 37.5273 34.8555 37.5273ZM41.1055 27.3273H19.8555C19.343 27.3273 18.918 26.9023 18.918 26.3898C18.918 25.8773 19.343 25.4523 19.8555 25.4523H41.1055C41.618 25.4523 42.043 25.8773 42.043 26.3898C42.043 26.9023 41.618 27.3273 41.1055 27.3273Z" fill="white"/>
<path d="M35.4805 43.4648H25.4805C20.918 43.4648 18.293 40.8398 18.293 36.2773V25.6523C18.293 21.0898 20.918 18.4648 25.4805 18.4648H35.4805C40.043 18.4648 42.668 21.0898 42.668 25.6523V36.2773C42.668 40.8398 40.043 43.4648 35.4805 43.4648ZM25.4805 20.3398C21.9055 20.3398 20.168 22.0773 20.168 25.6523V36.2773C20.168 39.8523 21.9055 41.5898 25.4805 41.5898H35.4805C39.0555 41.5898 40.793 39.8523 40.793 36.2773V25.6523C40.793 22.0773 39.0555 20.3398 35.4805 20.3398H25.4805Z" fill="white"/>
</svg>
