<svg width="25" height="25" viewBox="0 0 25 25" fill="none" xmlns="http://www.w3.org/2000/svg">
<path d="M12.0068 24.082C5.37942 24.082 0.00683594 18.7094 0.00683594 12.082C0.00683594 5.45461 5.37942 0.0820312 12.0068 0.0820312C18.6343 0.0820312 24.0068 5.45461 24.0068 12.082C24.0068 18.7095 18.6343 24.082 12.0068 24.082ZM12.0068 1.79632C6.32619 1.79632 1.72112 6.40139 1.72112 12.082C1.72112 17.7627 6.32619 22.3677 12.0068 22.3677C17.6875 22.3677 22.2926 17.7627 22.2926 12.082C22.2926 6.40139 17.6875 1.79631 12.0068 1.79632ZM10.8583 16.1535L18.5725 9.29632L17.4411 8.0106L10.2925 14.3363L6.61541 10.6163L5.39826 11.8335L9.68398 16.1192C9.84574 16.2796 10.0647 16.3691 10.2925 16.3677C10.5009 16.3674 10.702 16.2913 10.8583 16.1535Z" fill="#0CB600"/>
</svg>
