<svg width="21" height="21" viewBox="0 0 21 21" fill="none" xmlns="http://www.w3.org/2000/svg">
<path d="M10.4897 9.70086C10.4064 9.69253 10.3064 9.69253 10.2147 9.70086C9.25822 9.66839 8.35192 9.26489 7.68774 8.57583C7.02356 7.88676 6.65366 6.96624 6.65638 6.0092C6.65638 3.96753 8.30638 2.3092 10.3564 2.3092C10.8417 2.30044 11.324 2.38737 11.7758 2.56501C12.2275 2.74266 12.6399 3.00754 12.9893 3.34454C13.3386 3.68154 13.6182 4.08405 13.812 4.5291C14.0059 4.97415 14.1101 5.45302 14.1189 5.93836C14.1276 6.42371 14.0407 6.90602 13.8631 7.35777C13.6854 7.80952 13.4205 8.22186 13.0835 8.57124C12.7465 8.92062 12.344 9.2002 11.899 9.39402C11.4539 9.58784 10.9751 9.69211 10.4897 9.70086ZM6.32305 12.7759C4.30638 14.1259 4.30638 16.3259 6.32305 17.6675C8.61471 19.2009 12.373 19.2009 14.6647 17.6675C16.6814 16.3175 16.6814 14.1175 14.6647 12.7759C12.3814 11.2509 8.62305 11.2509 6.32305 12.7759Z" stroke="#111111" stroke-width="1.25" stroke-linecap="round" stroke-linejoin="round"/>
</svg>
