<svg width="17" height="17" viewBox="0 0 17 17" fill="none" xmlns="http://www.w3.org/2000/svg">
<path d="M9.11868 1.95187L9.09869 1.99854L7.16535 6.4852H5.26535C4.81202 6.4852 4.37868 6.57854 3.98535 6.7452L5.15202 3.95854L5.17868 3.89187L5.22535 3.7852C5.23869 3.7452 5.25202 3.7052 5.27202 3.67187C6.14535 1.65187 7.13202 1.19187 9.11868 1.95187Z" stroke="#34528A" stroke-linecap="round" stroke-linejoin="round"/>
<path d="M12.7127 6.61881C12.4127 6.52548 12.0927 6.48548 11.7727 6.48548H7.16602L9.09935 1.99882L9.11935 1.95215C9.21935 1.98548 9.31268 2.03215 9.41268 2.07215L10.886 2.69215C11.706 3.03215 12.2793 3.38548 12.626 3.81215C12.6927 3.89215 12.746 3.96548 12.7927 4.05215C12.8527 4.14548 12.8993 4.23882 12.926 4.33882C12.9527 4.39882 12.9727 4.45881 12.986 4.51215C13.166 5.07215 13.0593 5.75881 12.7127 6.61881Z" stroke="#34528A" stroke-linecap="round" stroke-linejoin="round"/>
<path d="M15.0262 9.73869V11.0387C15.0262 11.172 15.0195 11.3054 15.0129 11.4387C14.8862 13.7654 13.5862 14.9387 11.1195 14.9387H5.91953C5.75953 14.9387 5.59953 14.9254 5.4462 14.9054C3.3262 14.7654 2.19286 13.632 2.05286 11.512C2.03286 11.3587 2.01953 11.1987 2.01953 11.0387V9.73869C2.01953 8.39869 2.83286 7.24535 3.99286 6.74535C4.39286 6.57869 4.81953 6.48535 5.27286 6.48535H11.7795C12.1062 6.48535 12.4262 6.53202 12.7195 6.61868C14.0462 7.02535 15.0262 8.26535 15.0262 9.73869Z" stroke="#34528A" stroke-linecap="round" stroke-linejoin="round"/>
<path d="M5.15172 3.95898L3.98505 6.74565C3.39979 6.99743 2.90105 7.41505 2.55038 7.94698C2.19971 8.47891 2.01245 9.10187 2.01172 9.73898V7.78565C2.01172 5.89232 3.35839 4.31232 5.15172 3.95898ZM15.0244 7.78565V9.73898C15.0244 8.27232 14.0511 7.02565 12.7177 6.62565C13.0644 5.75898 13.1644 5.07898 12.9977 4.51232C12.9844 4.45232 12.9644 4.39232 12.9377 4.33898C14.1777 4.97898 15.0244 6.29232 15.0244 7.78565Z" stroke="#34528A" stroke-linecap="round" stroke-linejoin="round"/>
</svg>
