<svg width="100" height="20" viewBox="0 0 100 20" fill="none" xmlns="http://www.w3.org/2000/svg">
<path d="M12.9605 0.0399997L8.24047 9.14V14H5.44047V9.14L0.700469 0.0399997H3.86047L6.86047 6.42L9.84047 0.0399997H12.9605ZM19.4953 14.18C18.4286 14.18 17.4686 13.9467 16.6153 13.48C15.762 13 15.0886 12.3267 14.5953 11.46C14.1153 10.5933 13.8753 9.59333 13.8753 8.46C13.8753 7.32667 14.122 6.32667 14.6153 5.46C15.122 4.59333 15.8086 3.92667 16.6753 3.46C17.542 2.98 18.5086 2.74 19.5753 2.74C20.642 2.74 21.6086 2.98 22.4753 3.46C23.342 3.92667 24.022 4.59333 24.5153 5.46C25.022 6.32667 25.2753 7.32667 25.2753 8.46C25.2753 9.59333 25.0153 10.5933 24.4953 11.46C23.9886 12.3267 23.2953 13 22.4153 13.48C21.5486 13.9467 20.5753 14.18 19.4953 14.18ZM19.4953 11.74C20.002 11.74 20.4753 11.62 20.9153 11.38C21.3686 11.1267 21.7286 10.7533 21.9953 10.26C22.262 9.76667 22.3953 9.16667 22.3953 8.46C22.3953 7.40667 22.1153 6.6 21.5553 6.04C21.0086 5.46667 20.3353 5.18 19.5353 5.18C18.7353 5.18 18.062 5.46667 17.5153 6.04C16.982 6.6 16.7153 7.40667 16.7153 8.46C16.7153 9.51333 16.9753 10.3267 17.4953 10.9C18.0286 11.46 18.6953 11.74 19.4953 11.74ZM37.7892 2.92V14H34.9692V12.6C34.6092 13.08 34.1359 13.46 33.5492 13.74C32.9759 14.0067 32.3492 14.14 31.6692 14.14C30.8026 14.14 30.0359 13.96 29.3692 13.6C28.7026 13.2267 28.1759 12.6867 27.7892 11.98C27.4159 11.26 27.2292 10.4067 27.2292 9.42V2.92H30.0292V9.02C30.0292 9.9 30.2492 10.58 30.6892 11.06C31.1292 11.5267 31.7292 11.76 32.4892 11.76C33.2626 11.76 33.8692 11.5267 34.3092 11.06C34.7492 10.58 34.9692 9.9 34.9692 9.02V2.92H37.7892ZM43.3519 4.64C43.7119 4.05333 44.1785 3.59333 44.7519 3.26C45.3385 2.92667 46.0052 2.76 46.7519 2.76V5.7H46.0119C45.1319 5.7 44.4652 5.90667 44.0119 6.32C43.5719 6.73333 43.3519 7.45333 43.3519 8.48V14H40.5519V2.92H43.3519V4.64ZM56.2034 11.78H60.8034V14H53.4034V0.0399997H56.2034V11.78ZM67.5031 14.18C66.4365 14.18 65.4765 13.9467 64.6231 13.48C63.7698 13 63.0965 12.3267 62.6031 11.46C62.1231 10.5933 61.8831 9.59333 61.8831 8.46C61.8831 7.32667 62.1298 6.32667 62.6231 5.46C63.1298 4.59333 63.8165 3.92667 64.6831 3.46C65.5498 2.98 66.5165 2.74 67.5831 2.74C68.6498 2.74 69.6165 2.98 70.4831 3.46C71.3498 3.92667 72.0298 4.59333 72.5231 5.46C73.0298 6.32667 73.2831 7.32667 73.2831 8.46C73.2831 9.59333 73.0231 10.5933 72.5031 11.46C71.9965 12.3267 71.3031 13 70.4231 13.48C69.5565 13.9467 68.5831 14.18 67.5031 14.18ZM67.5031 11.74C68.0098 11.74 68.4831 11.62 68.9231 11.38C69.3765 11.1267 69.7365 10.7533 70.0031 10.26C70.2698 9.76667 70.4031 9.16667 70.4031 8.46C70.4031 7.40667 70.1231 6.6 69.5631 6.04C69.0165 5.46667 68.3431 5.18 67.5431 5.18C66.7431 5.18 66.0698 5.46667 65.5231 6.04C64.9898 6.6 64.7231 7.40667 64.7231 8.46C64.7231 9.51333 64.9831 10.3267 65.5031 10.9C66.0365 11.46 66.7031 11.74 67.5031 11.74ZM79.677 2.74C80.5037 2.74 81.2304 2.90667 81.857 3.24C82.4837 3.56 82.977 3.98 83.337 4.5V2.92H86.157V14.08C86.157 15.1067 85.9504 16.02 85.537 16.82C85.1237 17.6333 84.5037 18.2733 83.677 18.74C82.8504 19.22 81.8504 19.46 80.677 19.46C79.1037 19.46 77.8104 19.0933 76.797 18.36C75.797 17.6267 75.2304 16.6267 75.097 15.36H77.877C78.0237 15.8667 78.337 16.2667 78.817 16.56C79.3104 16.8667 79.9037 17.02 80.597 17.02C81.4104 17.02 82.0704 16.7733 82.577 16.28C83.0837 15.8 83.337 15.0667 83.337 14.08V12.36C82.977 12.88 82.477 13.3133 81.837 13.66C81.2104 14.0067 80.4904 14.18 79.677 14.18C78.7437 14.18 77.8904 13.94 77.117 13.46C76.3437 12.98 75.7304 12.3067 75.277 11.44C74.837 10.56 74.617 9.55333 74.617 8.42C74.617 7.3 74.837 6.30667 75.277 5.44C75.7304 4.57333 76.337 3.90667 77.097 3.44C77.8704 2.97333 78.7304 2.74 79.677 2.74ZM83.337 8.46C83.337 7.78 83.2037 7.2 82.937 6.72C82.6704 6.22667 82.3104 5.85333 81.857 5.6C81.4037 5.33333 80.917 5.2 80.397 5.2C79.877 5.2 79.397 5.32667 78.957 5.58C78.517 5.83333 78.157 6.20667 77.877 6.7C77.6104 7.18 77.477 7.75333 77.477 8.42C77.477 9.08667 77.6104 9.67333 77.877 10.18C78.157 10.6733 78.517 11.0533 78.957 11.32C79.4104 11.5867 79.8904 11.72 80.397 11.72C80.917 11.72 81.4037 11.5933 81.857 11.34C82.3104 11.0733 82.6704 10.7 82.937 10.22C83.2037 9.72667 83.337 9.14 83.337 8.46ZM93.8117 14.18C92.7451 14.18 91.7851 13.9467 90.9317 13.48C90.0784 13 89.4051 12.3267 88.9117 11.46C88.4317 10.5933 88.1917 9.59333 88.1917 8.46C88.1917 7.32667 88.4384 6.32667 88.9317 5.46C89.4384 4.59333 90.1251 3.92667 90.9917 3.46C91.8584 2.98 92.8251 2.74 93.8917 2.74C94.9584 2.74 95.9251 2.98 96.7917 3.46C97.6584 3.92667 98.3384 4.59333 98.8317 5.46C99.3384 6.32667 99.5917 7.32667 99.5917 8.46C99.5917 9.59333 99.3317 10.5933 98.8117 11.46C98.3051 12.3267 97.6117 13 96.7317 13.48C95.8651 13.9467 94.8917 14.18 93.8117 14.18ZM93.8117 11.74C94.3184 11.74 94.7917 11.62 95.2317 11.38C95.6851 11.1267 96.0451 10.7533 96.3117 10.26C96.5784 9.76667 96.7117 9.16667 96.7117 8.46C96.7117 7.40667 96.4317 6.6 95.8717 6.04C95.3251 5.46667 94.6517 5.18 93.8517 5.18C93.0517 5.18 92.3784 5.46667 91.8317 6.04C91.2984 6.6 91.0317 7.40667 91.0317 8.46C91.0317 9.51333 91.2917 10.3267 91.8117 10.9C92.3451 11.46 93.0117 11.74 93.8117 11.74Z" fill="#E9F5FB"/>
</svg>
