<svg width="19" height="19" viewBox="0 0 19 19" fill="none" xmlns="http://www.w3.org/2000/svg">
<path d="M15.761 6.62656C14.981 3.15406 11.951 1.60156 9.29595 1.60156H9.28846C6.64096 1.60156 3.61846 3.15406 2.83096 6.61906C1.94596 10.4891 4.31595 13.7666 6.46095 15.8366C7.22125 16.5725 8.23785 16.9839 9.29595 16.9841C10.316 16.9841 11.336 16.6016 12.1235 15.8366C14.2685 13.7666 16.6385 10.4966 15.761 6.62656ZM11.3585 8.91406H9.85845V10.4141C9.85845 10.7216 9.60345 10.9766 9.29595 10.9766C8.98845 10.9766 8.73345 10.7216 8.73345 10.4141V8.91406H7.23345C6.92595 8.91406 6.67095 8.65906 6.67095 8.35156C6.67095 8.04406 6.92595 7.78906 7.23345 7.78906H8.73345V6.28906C8.73345 5.98156 8.98845 5.72656 9.29595 5.72656C9.60345 5.72656 9.85845 5.98156 9.85845 6.28906V7.78906H11.3585C11.666 7.78906 11.921 8.04406 11.921 8.35156C11.921 8.65906 11.666 8.91406 11.3585 8.91406Z" fill="#34528A"/>
</svg>
