<svg width="18" height="18" viewBox="0 0 18 18" fill="none" xmlns="http://www.w3.org/2000/svg">
<path d="M15.4658 6.3375C14.6783 2.8725 11.6558 1.3125 9.0008 1.3125H8.9933C6.3458 1.3125 3.3158 2.865 2.5283 6.33C1.6508 10.2 4.0208 13.4775 6.1658 15.54C6.9261 16.2759 7.9427 16.6874 9.0008 16.6875C10.0208 16.6875 11.0408 16.305 11.8283 15.54C13.9733 13.4775 16.3433 10.2075 15.4658 6.3375ZM9.0008 10.095C8.69056 10.095 8.38335 10.0339 8.09671 9.91516C7.81008 9.79644 7.54964 9.62242 7.33026 9.40304C7.11089 9.18366 6.93687 8.92322 6.81814 8.63659C6.69941 8.34996 6.6383 8.04275 6.6383 7.7325C6.6383 7.42225 6.69941 7.11504 6.81814 6.82841C6.93687 6.54178 7.11089 6.28134 7.33026 6.06196C7.54964 5.84258 7.81008 5.66856 8.09671 5.54983C8.38335 5.43111 8.69056 5.37 9.0008 5.37C9.62738 5.37 10.2283 5.61891 10.6713 6.06196C11.1144 6.50502 11.3633 7.10593 11.3633 7.7325C11.3633 8.35907 11.1144 8.95998 10.6713 9.40304C10.2283 9.84609 9.62738 10.095 9.0008 10.095Z" fill="#34528A"/>
</svg>
