<svg width="20" height="20" viewBox="0 0 24 25" fill="none" xmlns="http://www.w3.org/2000/svg">
<g clip-path="url(#clip0_108_1512)">
<path d="M19.2901 17.7268L18.0001 16.4368V11.4368C18.0001 8.36677 16.3601 5.79677 13.5001 5.11677V4.43677C13.5001 3.60677 12.8301 2.93677 12.0001 2.93677C11.1701 2.93677 10.5001 3.60677 10.5001 4.43677V5.11677C7.63005 5.79677 6.00005 8.35677 6.00005 11.4368V16.4368L4.71005 17.7268C4.08005 18.3568 4.52005 19.4368 5.41005 19.4368H18.5801C19.4801 19.4368 19.9201 18.3568 19.2901 17.7268ZM16.0001 17.4368H8.00005V11.4368C8.00005 8.95677 9.51005 6.93677 12.0001 6.93677C14.4901 6.93677 16.0001 8.95677 16.0001 11.4368V17.4368ZM12.0001 22.4368C13.1001 22.4368 14.0001 21.5368 14.0001 20.4368H10.0001C10.0001 21.5368 10.8901 22.4368 12.0001 22.4368Z" fill="#A3AED0"/>
</g>
<defs>
<clipPath id="clip0_108_1512">
<rect width="24" height="24" fill="white" transform="translate(0 0.436768)"/>
</clipPath>
</defs>
</svg>
