<svg width="19" height="18" viewBox="0 0 19 18" fill="none" xmlns="http://www.w3.org/2000/svg">
<path d="M7.71088 10.6642H3.90088C3.44338 10.6642 3.02338 10.8967 2.78338 11.2867C2.54338 11.6692 2.52088 12.1267 2.71588 12.5317C3.64989 14.4323 5.2886 15.8934 7.28338 16.6042C7.41838 16.6493 7.56838 16.6793 7.71088 16.6793C8.05942 16.6765 8.39279 16.5363 8.63855 16.2891C8.88431 16.042 9.0226 15.7078 9.02338 15.3593L9.03088 11.9843C9.03088 11.6318 8.89588 11.3018 8.64838 11.0543C8.39899 10.8065 8.06239 10.6665 7.71088 10.6642ZM17.8209 7.2C16.9809 3.51 13.7484 0.9375 9.96088 0.9375C6.17338 0.9375 2.94088 3.51 2.10088 7.2C2.01088 7.59 2.10088 7.9875 2.35588 8.3025C2.61088 8.6175 2.98588 8.7975 3.39088 8.7975H16.5384C16.7357 8.79984 16.9311 8.75726 17.1095 8.67296C17.288 8.58867 17.445 8.46488 17.5685 8.31097C17.6921 8.15705 17.779 7.97704 17.8228 7.78457C17.8665 7.59209 17.8658 7.39219 17.8209 7.2ZM16.0059 10.704L12.2109 10.6965C12.0382 10.6954 11.8671 10.7286 11.7073 10.7942C11.5476 10.8597 11.4025 10.9564 11.2804 11.0785C11.1583 11.2006 11.0616 11.3457 10.9961 11.5054C10.9305 11.6652 10.8973 11.8363 10.8984 12.009L10.9059 15.369C10.9067 15.7176 11.045 16.0517 11.2907 16.2989C11.5365 16.546 11.8698 16.6862 12.2184 16.689C12.3609 16.689 12.5034 16.6665 12.6384 16.614C14.6034 15.924 16.2684 14.4465 17.1909 12.579C17.2869 12.3846 17.3318 12.169 17.3213 11.9525C17.3108 11.7359 17.2453 11.5257 17.1309 11.3415C16.8834 10.9365 16.4634 10.704 16.0059 10.704Z" fill="#34528A"/>
</svg>
