<svg width="19" height="19" viewBox="0 0 19 19" fill="none" xmlns="http://www.w3.org/2000/svg">
<path d="M14.3556 3.32883L10.6131 1.92633C9.99059 1.69383 8.97059 1.69383 8.34809 1.92633L4.60559 3.32883C3.74309 3.65133 3.03809 4.67133 3.03809 5.58633V11.1588C3.03809 12.0438 3.62309 13.2063 4.33559 13.7388L7.56059 16.1463C8.61809 16.9413 10.3581 16.9413 11.4156 16.1463L14.6406 13.7388C15.3531 13.2063 15.9381 12.0438 15.9381 11.1588V5.58633C15.9231 4.67133 15.2181 3.65133 14.3556 3.32883ZM9.42809 5.51883C10.3131 5.51883 11.0331 6.23883 11.0331 7.12383C11.0331 7.99383 10.3506 8.69133 9.48809 8.72133H9.41309C8.51309 8.69133 7.83809 7.99383 7.83809 7.12383C7.83059 6.23883 8.55059 5.51883 9.42809 5.51883ZM11.1231 12.5163C10.6656 12.8163 10.0731 12.9738 9.48059 12.9738C8.88809 12.9738 8.28809 12.8238 7.83809 12.5163C7.41059 12.2313 7.17809 11.8413 7.17059 11.4138C7.17059 10.9938 7.41059 10.5888 7.83809 10.3038C8.74559 9.70383 10.2231 9.70383 11.1306 10.3038C11.5581 10.5888 11.7981 10.9788 11.7981 11.4063C11.7906 11.8263 11.5506 12.2313 11.1231 12.5163Z" fill="#34528A"/>
</svg>
